<!--
  AUTO-GENERATED — DO NOT EDIT DIRECTLY

  Generated by: mockspace (mock)
  Generated at: 2026-07-24T06:31:24Z
  Source: mock/
  To regenerate: cargo mock
-->

<?xml version="1.0" encoding="UTF-8" standalone="no"?>
<!DOCTYPE svg PUBLIC "-//W3C//DTD SVG 1.1//EN"
 "http://www.w3.org/Graphics/SVG/1.1/DTD/svg11.dtd">
<!-- Generated by graphviz version 15.1.0 (20260618.0150)
 -->
<!-- Title: vehje Pages: 1 -->
<svg width="1332pt" height="770pt"
 viewBox="0.00 0.00 1332.00 770.00" xmlns="http://www.w3.org/2000/svg" xmlns:xlink="http://www.w3.org/1999/xlink">
<g id="graph0" class="graph" transform="scale(1 1) rotate(0) translate(57.6 712.6)">
<title>vehje</title>
<polygon fill="#fafafa" stroke="none" points="-57.6,57.6 -57.6,-712.6 1273.97,-712.6 1273.97,57.6 -57.6,57.6"/>
<text xml:space="preserve" text-anchor="start" x="10" y="-632.9" font-family="Helvetica,sans-Serif" font-weight="bold" font-size="18.00" fill="#37474f">vehje</text>
<text xml:space="preserve" text-anchor="start" x="10" y="-618.75" font-family="Helvetica,sans-Serif" font-size="9.00" fill="#999999">crate architecture</text>
<!-- vehje_codegen -->
<g id="node1" class="node">
<title>vehje_codegen</title>
<path fill="#f0f0f0" stroke="none" d="M129.25,-515.25C129.25,-515.25 407.25,-515.25 407.25,-515.25 413.25,-515.25 419.25,-521.25 419.25,-527.25 419.25,-527.25 419.25,-597.5 419.25,-597.5 419.25,-603.5 413.25,-609.5 407.25,-609.5 407.25,-609.5 129.25,-609.5 129.25,-609.5 123.25,-609.5 117.25,-603.5 117.25,-597.5 117.25,-597.5 117.25,-527.25 117.25,-527.25 117.25,-521.25 123.25,-515.25 129.25,-515.25"/>
<polygon fill="#666666" stroke="none" points="118.25,-591.25 118.25,-608.5 418.25,-608.5 418.25,-591.25 118.25,-591.25"/>
<text xml:space="preserve" text-anchor="start" x="242.38" y="-597" font-family="Helvetica,sans-Serif" font-weight="bold" font-size="10.00" fill="white"> &#160;codegen &#160;</text>
<text xml:space="preserve" text-anchor="start" x="121.25" y="-581.5" font-family="Helvetica,sans-Serif" font-size="6.00" fill="#78909c">trait</text>
<text xml:space="preserve" text-anchor="start" x="141.5" y="-581.65" font-family="Helvetica,sans-Serif" font-weight="bold" font-size="7.00" fill="#546e7a">◆ Target</text>
<text xml:space="preserve" text-anchor="start" x="170" y="-581.65" font-family="Helvetica,sans-Serif" font-size="8.00"> </text>
<text xml:space="preserve" text-anchor="start" x="172.25" y="-581.65" font-family="Helvetica,sans-Serif" font-size="5.00" fill="#aaaaaa">: TargetSets + core::fmt::Debug</text>
<text xml:space="preserve" text-anchor="start" x="141.5" y="-567.25" font-family="Helvetica,sans-Serif" font-size="5.00" fill="#90a4ae">ƒ emit&lt;S: ByteEmitter&gt;(checked: &amp;Checked&lt;&#39;_, Self&gt;, sink: &amp;mut S) → Outcome&lt;(), CodegenError&gt;</text>
<text xml:space="preserve" text-anchor="start" x="121.25" y="-552.62" font-family="Helvetica,sans-Serif" font-size="6.00" fill="#78909c">fn</text>
<text xml:space="preserve" text-anchor="start" x="141.5" y="-553.15" font-family="Helvetica,sans-Serif" font-weight="bold" font-size="7.00" fill="#546e7a">ƒ check_for&lt;&#39;a, T, Families, Effects&gt;</text>
<text xml:space="preserve" text-anchor="start" x="260.75" y="-553.15" font-family="Helvetica,sans-Serif" font-size="8.00">(graded: Graded&lt;&#39;a&gt;) → Checked&lt;&#39;a, T&gt;</text>
<text xml:space="preserve" text-anchor="start" x="121.25" y="-536.88" font-family="Helvetica,sans-Serif" font-size="6.00" fill="#78909c">fn</text>
<text xml:space="preserve" text-anchor="start" x="141.5" y="-536.65" font-family="Helvetica,sans-Serif" font-weight="bold" font-size="7.00" fill="#546e7a">ƒ fold_core&lt;F: FnMut(&amp;Node)&gt;</text>
<text xml:space="preserve" text-anchor="start" x="245.75" y="-536.65" font-family="Helvetica,sans-Serif" font-size="8.00">(arena: &amp;Arena&lt;&#39;_&gt;, at: NodeRef, visit: &amp;mut F)</text>
<text xml:space="preserve" text-anchor="start" x="121.25" y="-521.88" font-family="Helvetica,sans-Serif" font-size="6.00" fill="#78909c">enum</text>
<text xml:space="preserve" text-anchor="start" x="141.5" y="-522.6" font-family="Helvetica,sans-Serif" font-weight="bold" font-size="7.00" fill="#546e7a">▲ CodegenError</text>
<polygon fill="#666666" stroke="#666666" points="116.25,-591.25 116.25,-591.25 420.25,-591.25 420.25,-591.25 116.25,-591.25"/>
<polygon fill="#666666" stroke="#666666" points="116.25,-562.75 116.25,-562.75 138.5,-562.75 138.5,-562.75 116.25,-562.75"/>
<polygon fill="#666666" stroke="#666666" points="138.5,-562.75 138.5,-562.75 420.25,-562.75 420.25,-562.75 138.5,-562.75"/>
<polygon fill="#666666" stroke="#666666" points="116.25,-546.25 116.25,-546.25 138.5,-546.25 138.5,-546.25 116.25,-546.25"/>
<polygon fill="#666666" stroke="#666666" points="138.5,-546.25 138.5,-546.25 420.25,-546.25 420.25,-546.25 138.5,-546.25"/>
<polygon fill="#666666" stroke="#666666" points="116.25,-531.25 116.25,-531.25 138.5,-531.25 138.5,-531.25 116.25,-531.25"/>
<polygon fill="#666666" stroke="#666666" points="138.5,-531.25 138.5,-531.25 420.25,-531.25 420.25,-531.25 138.5,-531.25"/>
<path fill="none" stroke="#666666" stroke-width="2" d="M129.25,-515.25C129.25,-515.25 407.25,-515.25 407.25,-515.25 413.25,-515.25 419.25,-521.25 419.25,-527.25 419.25,-527.25 419.25,-597.5 419.25,-597.5 419.25,-603.5 413.25,-609.5 407.25,-609.5 407.25,-609.5 129.25,-609.5 129.25,-609.5 123.25,-609.5 117.25,-603.5 117.25,-597.5 117.25,-597.5 117.25,-527.25 117.25,-527.25 117.25,-521.25 123.25,-515.25 129.25,-515.25"/>
</g>
<!-- vehje_fixpoint -->
<g id="node2" class="node">
<title>vehje_fixpoint</title>
<path fill="#f0f0f0" stroke="none" d="M114.79,-1.25C114.79,-1.25 147.71,-1.25 147.71,-1.25 153.29,-1.25 158.88,-6.83 158.88,-12.42 158.88,-12.42 158.88,-23.58 158.88,-23.58 158.88,-29.17 153.29,-34.75 147.71,-34.75 147.71,-34.75 114.79,-34.75 114.79,-34.75 109.21,-34.75 103.62,-29.17 103.62,-23.58 103.62,-23.58 103.62,-12.42 103.62,-12.42 103.62,-6.83 109.21,-1.25 114.79,-1.25"/>
<polygon fill="#666666" stroke="none" points="104.62,-16.5 104.62,-33.75 157.88,-33.75 157.88,-16.5 104.62,-16.5"/>
<text xml:space="preserve" text-anchor="start" x="107.62" y="-22.25" font-family="Helvetica,sans-Serif" font-weight="bold" font-size="10.00" fill="white"> &#160;fixpoint &#160;</text>
<text xml:space="preserve" text-anchor="start" x="119.25" y="-7.85" font-family="Helvetica,sans-Serif" font-style="italic" font-size="7.00" fill="#999999">(empty)</text>
<path fill="none" stroke="#666666" stroke-width="2" d="M114.79,-1.25C114.79,-1.25 147.71,-1.25 147.71,-1.25 153.29,-1.25 158.88,-6.83 158.88,-12.42 158.88,-12.42 158.88,-23.58 158.88,-23.58 158.88,-29.17 153.29,-34.75 147.71,-34.75 147.71,-34.75 114.79,-34.75 114.79,-34.75 109.21,-34.75 103.62,-29.17 103.62,-23.58 103.62,-23.58 103.62,-12.42 103.62,-12.42 103.62,-6.83 109.21,-1.25 114.79,-1.25"/>
</g>
<!-- vehje_lower -->
<g id="node4" class="node">
<title>vehje_lower</title>
<path fill="#f0f0f0" stroke="none" d="M144.25,-109C144.25,-109 206.25,-109 206.25,-109 212.25,-109 218.25,-115 218.25,-121 218.25,-121 218.25,-241.5 218.25,-241.5 218.25,-247.5 212.25,-253.5 206.25,-253.5 206.25,-253.5 144.25,-253.5 144.25,-253.5 138.25,-253.5 132.25,-247.5 132.25,-241.5 132.25,-241.5 132.25,-121 132.25,-121 132.25,-115 138.25,-109 144.25,-109"/>
<polygon fill="#666666" stroke="none" points="133.25,-235.25 133.25,-252.5 217.25,-252.5 217.25,-235.25 133.25,-235.25"/>
<text xml:space="preserve" text-anchor="start" x="156.5" y="-241" font-family="Helvetica,sans-Serif" font-weight="bold" font-size="10.00" fill="white"> &#160;lower &#160;</text>
<text xml:space="preserve" text-anchor="start" x="136.25" y="-225.5" font-family="Helvetica,sans-Serif" font-size="6.00" fill="#78909c">struct</text>
<text xml:space="preserve" text-anchor="start" x="156.5" y="-226.6" font-family="Helvetica,sans-Serif" font-weight="bold" font-size="7.00" fill="#546e7a">■ Rewrite&lt;&#39;a&gt;</text>
<text xml:space="preserve" text-anchor="start" x="136.25" y="-210.12" font-family="Helvetica,sans-Serif" font-size="6.00" fill="#78909c">enum</text>
<text xml:space="preserve" text-anchor="start" x="156.5" y="-210.85" font-family="Helvetica,sans-Serif" font-weight="bold" font-size="7.00" fill="#546e7a">▲ LowerStrategy</text>
<text xml:space="preserve" text-anchor="start" x="136.25" y="-194.75" font-family="Helvetica,sans-Serif" font-size="6.00" fill="#78909c">struct</text>
<text xml:space="preserve" text-anchor="start" x="156.5" y="-195.85" font-family="Helvetica,sans-Serif" font-weight="bold" font-size="7.00" fill="#546e7a">■ RuleTable</text>
<text xml:space="preserve" text-anchor="start" x="136.25" y="-179" font-family="Helvetica,sans-Serif" font-size="6.00" fill="#78909c">struct</text>
<text xml:space="preserve" text-anchor="start" x="156.5" y="-180.1" font-family="Helvetica,sans-Serif" font-weight="bold" font-size="7.00" fill="#546e7a">■ ConstFold</text>
<text xml:space="preserve" text-anchor="start" x="136.25" y="-163.25" font-family="Helvetica,sans-Serif" font-size="6.00" fill="#78909c">struct</text>
<text xml:space="preserve" text-anchor="start" x="156.5" y="-164.35" font-family="Helvetica,sans-Serif" font-weight="bold" font-size="7.00" fill="#546e7a">■ Cse</text>
<text xml:space="preserve" text-anchor="start" x="136.25" y="-147.5" font-family="Helvetica,sans-Serif" font-size="6.00" fill="#78909c">struct</text>
<text xml:space="preserve" text-anchor="start" x="156.5" y="-148.6" font-family="Helvetica,sans-Serif" font-weight="bold" font-size="7.00" fill="#546e7a">■ Anf</text>
<text xml:space="preserve" text-anchor="start" x="136.25" y="-131.75" font-family="Helvetica,sans-Serif" font-size="6.00" fill="#78909c">struct</text>
<text xml:space="preserve" text-anchor="start" x="156.5" y="-132.85" font-family="Helvetica,sans-Serif" font-weight="bold" font-size="7.00" fill="#546e7a">■ MacroExpand</text>
<text xml:space="preserve" text-anchor="start" x="136.25" y="-116" font-family="Helvetica,sans-Serif" font-size="6.00" fill="#78909c">struct</text>
<text xml:space="preserve" text-anchor="start" x="156.5" y="-117.1" font-family="Helvetica,sans-Serif" font-weight="bold" font-size="7.00" fill="#546e7a">■ Lower</text>
<polygon fill="#666666" stroke="#666666" points="131.25,-235.25 131.25,-235.25 219.25,-235.25 219.25,-235.25 131.25,-235.25"/>
<polygon fill="#666666" stroke="#666666" points="131.25,-219.5 131.25,-219.5 153.5,-219.5 153.5,-219.5 131.25,-219.5"/>
<polygon fill="#666666" stroke="#666666" points="153.5,-219.5 153.5,-219.5 219.25,-219.5 219.25,-219.5 153.5,-219.5"/>
<polygon fill="#666666" stroke="#666666" points="131.25,-204.5 131.25,-204.5 153.5,-204.5 153.5,-204.5 131.25,-204.5"/>
<polygon fill="#666666" stroke="#666666" points="153.5,-204.5 153.5,-204.5 219.25,-204.5 219.25,-204.5 153.5,-204.5"/>
<polygon fill="#666666" stroke="#666666" points="131.25,-188.75 131.25,-188.75 153.5,-188.75 153.5,-188.75 131.25,-188.75"/>
<polygon fill="#666666" stroke="#666666" points="153.5,-188.75 153.5,-188.75 219.25,-188.75 219.25,-188.75 153.5,-188.75"/>
<polygon fill="#666666" stroke="#666666" points="131.25,-173 131.25,-173 153.5,-173 153.5,-173 131.25,-173"/>
<polygon fill="#666666" stroke="#666666" points="153.5,-173 153.5,-173 219.25,-173 219.25,-173 153.5,-173"/>
<polygon fill="#666666" stroke="#666666" points="131.25,-157.25 131.25,-157.25 153.5,-157.25 153.5,-157.25 131.25,-157.25"/>
<polygon fill="#666666" stroke="#666666" points="153.5,-157.25 153.5,-157.25 219.25,-157.25 219.25,-157.25 153.5,-157.25"/>
<polygon fill="#666666" stroke="#666666" points="131.25,-141.5 131.25,-141.5 153.5,-141.5 153.5,-141.5 131.25,-141.5"/>
<polygon fill="#666666" stroke="#666666" points="153.5,-141.5 153.5,-141.5 219.25,-141.5 219.25,-141.5 153.5,-141.5"/>
<polygon fill="#666666" stroke="#666666" points="131.25,-125.75 131.25,-125.75 153.5,-125.75 153.5,-125.75 131.25,-125.75"/>
<polygon fill="#666666" stroke="#666666" points="153.5,-125.75 153.5,-125.75 219.25,-125.75 219.25,-125.75 153.5,-125.75"/>
<path fill="none" stroke="#666666" stroke-width="2" d="M144.25,-109C144.25,-109 206.25,-109 206.25,-109 212.25,-109 218.25,-115 218.25,-121 218.25,-121 218.25,-241.5 218.25,-241.5 218.25,-247.5 212.25,-253.5 206.25,-253.5 206.25,-253.5 144.25,-253.5 144.25,-253.5 138.25,-253.5 132.25,-247.5 132.25,-241.5 132.25,-241.5 132.25,-121 132.25,-121 132.25,-115 138.25,-109 144.25,-109"/>
</g>
<!-- vehje_fixpoint&#45;&gt;vehje_lower -->
<g id="edge3" class="edge">
<title>vehje_fixpoint&#45;&gt;vehje_lower</title>
<path fill="none" stroke="#bbbbbb" stroke-width="0.8" d="M135.88,-35.95C140.25,-51.97 147.13,-77.2 153.93,-102.11"/>
<polygon fill="#bbbbbb" stroke="#bbbbbb" stroke-width="0.8" points="152.24,-102.56 155.24,-106.92 155.61,-101.64 152.24,-102.56"/>
</g>
<!-- vehje_typecheck -->
<g id="node11" class="node">
<title>vehje_typecheck</title>
<path fill="#f0f0f0" stroke="none" d="M13,-335C13,-335 523.5,-335 523.5,-335 529.5,-335 535.5,-341 535.5,-347 535.5,-347 535.5,-421.75 535.5,-421.75 535.5,-427.75 529.5,-433.75 523.5,-433.75 523.5,-433.75 13,-433.75 13,-433.75 7,-433.75 1,-427.75 1,-421.75 1,-421.75 1,-347 1,-347 1,-341 7,-335 13,-335"/>
<polygon fill="#666666" stroke="none" points="2,-415.5 2,-432.75 534.5,-432.75 534.5,-415.5 2,-415.5"/>
<text xml:space="preserve" text-anchor="start" x="239" y="-421.25" font-family="Helvetica,sans-Serif" font-weight="bold" font-size="10.00" fill="white"> &#160;typecheck &#160;</text>
<text xml:space="preserve" text-anchor="start" x="5" y="-406.12" font-family="Helvetica,sans-Serif" font-size="6.00" fill="#78909c">enum</text>
<text xml:space="preserve" text-anchor="start" x="25.25" y="-406.85" font-family="Helvetica,sans-Serif" font-weight="bold" font-size="7.00" fill="#546e7a">▲ CheckError</text>
<text xml:space="preserve" text-anchor="start" x="5" y="-390.75" font-family="Helvetica,sans-Serif" font-size="6.00" fill="#78909c">struct</text>
<text xml:space="preserve" text-anchor="start" x="25.25" y="-391.85" font-family="Helvetica,sans-Serif" font-weight="bold" font-size="7.00" fill="#546e7a">■ Checked&lt;&#39;a, T&gt;</text>
<text xml:space="preserve" text-anchor="start" x="5" y="-375" font-family="Helvetica,sans-Serif" font-size="6.00" fill="#78909c">struct</text>
<text xml:space="preserve" text-anchor="start" x="25.25" y="-376.1" font-family="Helvetica,sans-Serif" font-weight="bold" font-size="7.00" fill="#546e7a">■ Graded&lt;&#39;a&gt;</text>
<text xml:space="preserve" text-anchor="start" x="5" y="-358.88" font-family="Helvetica,sans-Serif" font-size="6.00" fill="#78909c">fn</text>
<text xml:space="preserve" text-anchor="start" x="25.25" y="-359.4" font-family="Helvetica,sans-Serif" font-weight="bold" font-size="7.00" fill="#546e7a">ƒ mint_checked&lt;&#39;a, T, Families, Effects&gt;</text>
<text xml:space="preserve" text-anchor="start" x="158" y="-359.4" font-family="Helvetica,sans-Serif" font-size="8.00">(graded: Graded&lt;&#39;a&gt;, _inclusion: PhantomData&lt;(Families, Effects)&gt;) → Checked&lt;&#39;a, T&gt;</text>
<text xml:space="preserve" text-anchor="start" x="5" y="-342.38" font-family="Helvetica,sans-Serif" font-size="6.00" fill="#78909c">fn</text>
<text xml:space="preserve" text-anchor="start" x="25.25" y="-342.9" font-family="Helvetica,sans-Serif" font-weight="bold" font-size="7.00" fill="#546e7a">ƒ check&lt;&#39;a&gt;</text>
<text xml:space="preserve" text-anchor="start" x="63.5" y="-342.9" font-family="Helvetica,sans-Serif" font-size="8.00">(arena: &amp;&#39;a Arena&lt;&#39;a&gt;, root: NodeRef, res: &amp;Resolution&lt;&#39;_&gt;, grades: &amp;mut GradeTable&lt;&#39;_&gt;) → Outcome&lt;Graded&lt;&#39;a&gt;, CheckError&gt;</text>
<polygon fill="#666666" stroke="#666666" points="0,-415.5 0,-415.5 536.5,-415.5 536.5,-415.5 0,-415.5"/>
<polygon fill="#666666" stroke="#666666" points="0,-400.5 0,-400.5 22.25,-400.5 22.25,-400.5 0,-400.5"/>
<polygon fill="#666666" stroke="#666666" points="22.25,-400.5 22.25,-400.5 536.5,-400.5 536.5,-400.5 22.25,-400.5"/>
<polygon fill="#666666" stroke="#666666" points="0,-384.75 0,-384.75 22.25,-384.75 22.25,-384.75 0,-384.75"/>
<polygon fill="#666666" stroke="#666666" points="22.25,-384.75 22.25,-384.75 536.5,-384.75 536.5,-384.75 22.25,-384.75"/>
<polygon fill="#666666" stroke="#666666" points="0,-369 0,-369 22.25,-369 22.25,-369 0,-369"/>
<polygon fill="#666666" stroke="#666666" points="22.25,-369 22.25,-369 536.5,-369 536.5,-369 22.25,-369"/>
<polygon fill="#666666" stroke="#666666" points="0,-352.5 0,-352.5 22.25,-352.5 22.25,-352.5 0,-352.5"/>
<polygon fill="#666666" stroke="#666666" points="22.25,-352.5 22.25,-352.5 536.5,-352.5 536.5,-352.5 22.25,-352.5"/>
<path fill="none" stroke="#666666" stroke-width="2" d="M13,-335C13,-335 523.5,-335 523.5,-335 529.5,-335 535.5,-341 535.5,-347 535.5,-347 535.5,-421.75 535.5,-421.75 535.5,-427.75 529.5,-433.75 523.5,-433.75 523.5,-433.75 13,-433.75 13,-433.75 7,-433.75 1,-427.75 1,-421.75 1,-421.75 1,-347 1,-347 1,-341 7,-335 13,-335"/>
</g>
<!-- vehje_fixpoint&#45;&gt;vehje_typecheck -->
<g id="edge13" class="edge">
<title>vehje_fixpoint&#45;&gt;vehje_typecheck</title>
<path fill="none" stroke="#bbbbbb" stroke-width="0.8" d="M124.89,-35.99C110.92,-76.19 81.47,-179.41 116.25,-254.5 130.14,-284.5 154.84,-310.06 180.34,-330.31"/>
<polygon fill="#bbbbbb" stroke="#bbbbbb" stroke-width="0.8" points="179.14,-331.59 184.16,-333.29 181.29,-328.83 179.14,-331.59"/>
</g>
<!-- vehje_ir -->
<g id="node3" class="node">
<title>vehje_ir</title>
<path fill="#f0f0f0" stroke="none" d="M751.92,-1.25C751.92,-1.25 762.58,-1.25 762.58,-1.25 767.92,-1.25 773.25,-6.58 773.25,-11.92 773.25,-11.92 773.25,-24.08 773.25,-24.08 773.25,-29.42 767.92,-34.75 762.58,-34.75 762.58,-34.75 751.92,-34.75 751.92,-34.75 746.58,-34.75 741.25,-29.42 741.25,-24.08 741.25,-24.08 741.25,-11.92 741.25,-11.92 741.25,-6.58 746.58,-1.25 751.92,-1.25"/>
<polygon fill="#666666" stroke="none" points="742.25,-16.5 742.25,-33.75 772.25,-33.75 772.25,-16.5 742.25,-16.5"/>
<text xml:space="preserve" text-anchor="start" x="747.88" y="-22.25" font-family="Helvetica,sans-Serif" font-weight="bold" font-size="10.00" fill="white"> &#160;ir &#160;</text>
<text xml:space="preserve" text-anchor="start" x="745.25" y="-7.85" font-family="Helvetica,sans-Serif" font-style="italic" font-size="7.00" fill="#999999">(empty)</text>
<path fill="none" stroke="#666666" stroke-width="2" d="M751.92,-1.25C751.92,-1.25 762.58,-1.25 762.58,-1.25 767.92,-1.25 773.25,-6.58 773.25,-11.92 773.25,-11.92 773.25,-24.08 773.25,-24.08 773.25,-29.42 767.92,-34.75 762.58,-34.75 762.58,-34.75 751.92,-34.75 751.92,-34.75 746.58,-34.75 741.25,-29.42 741.25,-24.08 741.25,-24.08 741.25,-11.92 741.25,-11.92 741.25,-6.58 746.58,-1.25 751.92,-1.25"/>
</g>
<!-- vehje_ir&#45;&gt;vehje_lower -->
<g id="edge2" class="edge">
<title>vehje_ir&#45;&gt;vehje_lower</title>
<path fill="none" stroke="#bbbbbb" stroke-width="0.8" d="M730.48,-21.04C636.05,-28.6 319.57,-57.27 233.25,-108 229.97,-109.93 226.81,-112.11 223.76,-114.49"/>
<polygon fill="#bbbbbb" stroke="#bbbbbb" stroke-width="0.8" points="222.73,-113.07 220,-117.61 224.97,-115.76 222.73,-113.07"/>
</g>
<!-- vehje_resolve -->
<g id="node5" class="node">
<title>vehje_resolve</title>
<path fill="#f0f0f0" stroke="none" d="M261.25,-131.88C261.25,-131.88 671.25,-131.88 671.25,-131.88 677.25,-131.88 683.25,-137.88 683.25,-143.88 683.25,-143.88 683.25,-218.62 683.25,-218.62 683.25,-224.62 677.25,-230.62 671.25,-230.62 671.25,-230.62 261.25,-230.62 261.25,-230.62 255.25,-230.62 249.25,-224.62 249.25,-218.62 249.25,-218.62 249.25,-143.88 249.25,-143.88 249.25,-137.88 255.25,-131.88 261.25,-131.88"/>
<polygon fill="#666666" stroke="none" points="250.25,-212.38 250.25,-229.62 682.25,-229.62 682.25,-212.38 250.25,-212.38"/>
<text xml:space="preserve" text-anchor="start" x="443.38" y="-218.12" font-family="Helvetica,sans-Serif" font-weight="bold" font-size="10.00" fill="white"> &#160;resolve &#160;</text>
<text xml:space="preserve" text-anchor="start" x="253.25" y="-202.62" font-family="Helvetica,sans-Serif" font-size="6.00" fill="#78909c">struct</text>
<text xml:space="preserve" text-anchor="start" x="273.5" y="-203.72" font-family="Helvetica,sans-Serif" font-weight="bold" font-size="7.00" fill="#546e7a">■ Scope&lt;&#39;p&gt;</text>
<text xml:space="preserve" text-anchor="start" x="253.25" y="-187.25" font-family="Helvetica,sans-Serif" font-size="6.00" fill="#78909c">enum</text>
<text xml:space="preserve" text-anchor="start" x="273.5" y="-187.97" font-family="Helvetica,sans-Serif" font-weight="bold" font-size="7.00" fill="#546e7a">▲ ResolveError</text>
<text xml:space="preserve" text-anchor="start" x="253.25" y="-171.5" font-family="Helvetica,sans-Serif" font-size="6.00" fill="#78909c">fn</text>
<text xml:space="preserve" text-anchor="start" x="273.5" y="-172.03" font-family="Helvetica,sans-Serif" font-weight="bold" font-size="7.00" fill="#546e7a">ƒ resolve</text>
<text xml:space="preserve" text-anchor="start" x="304.25" y="-172.03" font-family="Helvetica,sans-Serif" font-size="8.00">(arena: &amp;Arena&lt;&#39;_&gt;, root: NodeRef) → Outcome&lt;(), ResolveError&gt;</text>
<text xml:space="preserve" text-anchor="start" x="253.25" y="-155.38" font-family="Helvetica,sans-Serif" font-size="6.00" fill="#78909c">struct</text>
<text xml:space="preserve" text-anchor="start" x="273.5" y="-156.47" font-family="Helvetica,sans-Serif" font-weight="bold" font-size="7.00" fill="#546e7a">■ Resolution&lt;&#39;a&gt;</text>
<text xml:space="preserve" text-anchor="start" x="253.25" y="-139.25" font-family="Helvetica,sans-Serif" font-size="6.00" fill="#78909c">fn</text>
<text xml:space="preserve" text-anchor="start" x="273.5" y="-139.78" font-family="Helvetica,sans-Serif" font-weight="bold" font-size="7.00" fill="#546e7a">ƒ resolve_into</text>
<text xml:space="preserve" text-anchor="start" x="321.5" y="-139.78" font-family="Helvetica,sans-Serif" font-size="8.00">(arena: &amp;Arena&lt;&#39;_&gt;, root: NodeRef, resolution: &amp;mut Resolution&lt;&#39;_&gt;) → Outcome&lt;(), ResolveError&gt;</text>
<polygon fill="#666666" stroke="#666666" points="248.25,-212.38 248.25,-212.38 684.25,-212.38 684.25,-212.38 248.25,-212.38"/>
<polygon fill="#666666" stroke="#666666" points="248.25,-196.62 248.25,-196.62 270.5,-196.62 270.5,-196.62 248.25,-196.62"/>
<polygon fill="#666666" stroke="#666666" points="270.5,-196.62 270.5,-196.62 684.25,-196.62 684.25,-196.62 270.5,-196.62"/>
<polygon fill="#666666" stroke="#666666" points="248.25,-181.62 248.25,-181.62 270.5,-181.62 270.5,-181.62 248.25,-181.62"/>
<polygon fill="#666666" stroke="#666666" points="270.5,-181.62 270.5,-181.62 684.25,-181.62 684.25,-181.62 270.5,-181.62"/>
<polygon fill="#666666" stroke="#666666" points="248.25,-165.12 248.25,-165.12 270.5,-165.12 270.5,-165.12 248.25,-165.12"/>
<polygon fill="#666666" stroke="#666666" points="270.5,-165.12 270.5,-165.12 684.25,-165.12 684.25,-165.12 270.5,-165.12"/>
<polygon fill="#666666" stroke="#666666" points="248.25,-149.38 248.25,-149.38 270.5,-149.38 270.5,-149.38 248.25,-149.38"/>
<polygon fill="#666666" stroke="#666666" points="270.5,-149.38 270.5,-149.38 684.25,-149.38 684.25,-149.38 270.5,-149.38"/>
<path fill="none" stroke="#666666" stroke-width="2" d="M261.25,-131.88C261.25,-131.88 671.25,-131.88 671.25,-131.88 677.25,-131.88 683.25,-137.88 683.25,-143.88 683.25,-143.88 683.25,-218.62 683.25,-218.62 683.25,-224.62 677.25,-230.62 671.25,-230.62 671.25,-230.62 261.25,-230.62 261.25,-230.62 255.25,-230.62 249.25,-224.62 249.25,-218.62 249.25,-218.62 249.25,-143.88 249.25,-143.88 249.25,-137.88 255.25,-131.88 261.25,-131.88"/>
</g>
<!-- vehje_ir&#45;&gt;vehje_resolve -->
<g id="edge4" class="edge">
<title>vehje_ir&#45;&gt;vehje_resolve</title>
<path fill="none" stroke="#bbbbbb" stroke-width="0.8" d="M730.4,-33.88C692.08,-55.11 619.82,-95.15 560.55,-128"/>
<polygon fill="#bbbbbb" stroke="#bbbbbb" stroke-width="0.8" points="559.8,-126.41 556.27,-130.37 561.5,-129.47 559.8,-126.41"/>
</g>
<!-- vehje_runtime_abi -->
<g id="node6" class="node">
<title>vehje_runtime_abi</title>
<path fill="#f0f0f0" stroke="none" d="M1045.79,-164.5C1045.79,-164.5 1096.71,-164.5 1096.71,-164.5 1102.29,-164.5 1107.88,-170.08 1107.88,-175.67 1107.88,-175.67 1107.88,-186.83 1107.88,-186.83 1107.88,-192.42 1102.29,-198 1096.71,-198 1096.71,-198 1045.79,-198 1045.79,-198 1040.21,-198 1034.62,-192.42 1034.62,-186.83 1034.62,-186.83 1034.62,-175.67 1034.62,-175.67 1034.62,-170.08 1040.21,-164.5 1045.79,-164.5"/>
<polygon fill="#666666" stroke="none" points="1035.62,-179.75 1035.62,-197 1106.88,-197 1106.88,-179.75 1035.62,-179.75"/>
<text xml:space="preserve" text-anchor="start" x="1038.62" y="-185.5" font-family="Helvetica,sans-Serif" font-weight="bold" font-size="10.00" fill="white"> &#160;runtime&#45;abi &#160;</text>
<text xml:space="preserve" text-anchor="start" x="1059.25" y="-171.1" font-family="Helvetica,sans-Serif" font-style="italic" font-size="7.00" fill="#999999">(empty)</text>
<path fill="none" stroke="#666666" stroke-width="2" d="M1045.79,-164.5C1045.79,-164.5 1096.71,-164.5 1096.71,-164.5 1102.29,-164.5 1107.88,-170.08 1107.88,-175.67 1107.88,-175.67 1107.88,-186.83 1107.88,-186.83 1107.88,-192.42 1102.29,-198 1096.71,-198 1096.71,-198 1045.79,-198 1045.79,-198 1040.21,-198 1034.62,-192.42 1034.62,-186.83 1034.62,-186.83 1034.62,-175.67 1034.62,-175.67 1034.62,-170.08 1040.21,-164.5 1045.79,-164.5"/>
</g>
<!-- vehje_ir&#45;&gt;vehje_runtime_abi -->
<g id="edge5" class="edge">
<title>vehje_ir&#45;&gt;vehje_runtime_abi</title>
<path fill="none" stroke="#bbbbbb" stroke-width="0.8" d="M783.9,-25.43C829.28,-37.15 923.42,-64.81 993.25,-108 1015.92,-122.02 1037.84,-143.22 1052.64,-159.03"/>
<polygon fill="#bbbbbb" stroke="#bbbbbb" stroke-width="0.8" points="1051.11,-159.96 1055.79,-162.45 1053.68,-157.59 1051.11,-159.96"/>
</g>
<!-- vehje_schedule -->
<g id="node9" class="node">
<title>vehje_schedule</title>
<path fill="#f0f0f0" stroke="none" d="M894.38,-140.5C894.38,-140.5 966.12,-140.5 966.12,-140.5 972.12,-140.5 978.12,-146.5 978.12,-152.5 978.12,-152.5 978.12,-210 978.12,-210 978.12,-216 972.12,-222 966.12,-222 966.12,-222 894.38,-222 894.38,-222 888.38,-222 882.38,-216 882.38,-210 882.38,-210 882.38,-152.5 882.38,-152.5 882.38,-146.5 888.38,-140.5 894.38,-140.5"/>
<polygon fill="#666666" stroke="none" points="883.38,-203.75 883.38,-221 977.12,-221 977.12,-203.75 883.38,-203.75"/>
<text xml:space="preserve" text-anchor="start" x="903.25" y="-209.5" font-family="Helvetica,sans-Serif" font-weight="bold" font-size="10.00" fill="white"> &#160;schedule &#160;</text>
<text xml:space="preserve" text-anchor="start" x="886.38" y="-194" font-family="Helvetica,sans-Serif" font-size="6.00" fill="#78909c">trait</text>
<text xml:space="preserve" text-anchor="start" x="906.62" y="-194.15" font-family="Helvetica,sans-Serif" font-weight="bold" font-size="7.00" fill="#546e7a">◆ Pass</text>
<text xml:space="preserve" text-anchor="start" x="929.88" y="-194.15" font-family="Helvetica,sans-Serif" font-size="8.00"> </text>
<text xml:space="preserve" text-anchor="start" x="932.12" y="-194.15" font-family="Helvetica,sans-Serif" font-size="5.00" fill="#aaaaaa">: core::fmt::Debug</text>
<text xml:space="preserve" text-anchor="start" x="886.38" y="-178.62" font-family="Helvetica,sans-Serif" font-size="6.00" fill="#78909c">enum</text>
<text xml:space="preserve" text-anchor="start" x="906.62" y="-179.35" font-family="Helvetica,sans-Serif" font-weight="bold" font-size="7.00" fill="#546e7a">▲ ScheduleError</text>
<text xml:space="preserve" text-anchor="start" x="886.38" y="-163.25" font-family="Helvetica,sans-Serif" font-size="6.00" fill="#78909c">struct</text>
<text xml:space="preserve" text-anchor="start" x="906.62" y="-164.35" font-family="Helvetica,sans-Serif" font-weight="bold" font-size="7.00" fill="#546e7a">■ PassDag</text>
<text xml:space="preserve" text-anchor="start" x="886.38" y="-147.5" font-family="Helvetica,sans-Serif" font-size="6.00" fill="#78909c">struct</text>
<text xml:space="preserve" text-anchor="start" x="906.62" y="-148.6" font-family="Helvetica,sans-Serif" font-weight="bold" font-size="7.00" fill="#546e7a">■ Schedule</text>
<polygon fill="#666666" stroke="#666666" points="881.38,-203.75 881.38,-203.75 979.12,-203.75 979.12,-203.75 881.38,-203.75"/>
<polygon fill="#666666" stroke="#666666" points="881.38,-188 881.38,-188 903.62,-188 903.62,-188 881.38,-188"/>
<polygon fill="#666666" stroke="#666666" points="903.62,-188 903.62,-188 979.12,-188 979.12,-188 903.62,-188"/>
<polygon fill="#666666" stroke="#666666" points="881.38,-173 881.38,-173 903.62,-173 903.62,-173 881.38,-173"/>
<polygon fill="#666666" stroke="#666666" points="903.62,-173 903.62,-173 979.12,-173 979.12,-173 903.62,-173"/>
<polygon fill="#666666" stroke="#666666" points="881.38,-157.25 881.38,-157.25 903.62,-157.25 903.62,-157.25 881.38,-157.25"/>
<polygon fill="#666666" stroke="#666666" points="903.62,-157.25 903.62,-157.25 979.12,-157.25 979.12,-157.25 903.62,-157.25"/>
<path fill="none" stroke="#666666" stroke-width="2" d="M894.38,-140.5C894.38,-140.5 966.12,-140.5 966.12,-140.5 972.12,-140.5 978.12,-146.5 978.12,-152.5 978.12,-152.5 978.12,-210 978.12,-210 978.12,-216 972.12,-222 966.12,-222 966.12,-222 894.38,-222 894.38,-222 888.38,-222 882.38,-216 882.38,-210 882.38,-210 882.38,-152.5 882.38,-152.5 882.38,-146.5 888.38,-140.5 894.38,-140.5"/>
</g>
<!-- vehje_ir&#45;&gt;vehje_schedule -->
<g id="edge9" class="edge">
<title>vehje_ir&#45;&gt;vehje_schedule</title>
<path fill="none" stroke="#bbbbbb" stroke-width="0.8" d="M775.44,-35.95C800.61,-59.42 846.99,-102.64 882.44,-135.68"/>
<polygon fill="#bbbbbb" stroke="#bbbbbb" stroke-width="0.8" points="880.97,-136.71 885.82,-138.84 883.35,-134.15 880.97,-136.71"/>
</g>
<!-- vehje_signature -->
<g id="node10" class="node">
<title>vehje_signature</title>
<path fill="#f0f0f0" stroke="none" d="M726.25,-125.12C726.25,-125.12 788.25,-125.12 788.25,-125.12 794.25,-125.12 800.25,-131.12 800.25,-137.12 800.25,-137.12 800.25,-225.38 800.25,-225.38 800.25,-231.38 794.25,-237.38 788.25,-237.38 788.25,-237.38 726.25,-237.38 726.25,-237.38 720.25,-237.38 714.25,-231.38 714.25,-225.38 714.25,-225.38 714.25,-137.12 714.25,-137.12 714.25,-131.12 720.25,-125.12 726.25,-125.12"/>
<polygon fill="#666666" stroke="none" points="715.25,-219.12 715.25,-236.38 799.25,-236.38 799.25,-219.12 715.25,-219.12"/>
<text xml:space="preserve" text-anchor="start" x="729.5" y="-224.88" font-family="Helvetica,sans-Serif" font-weight="bold" font-size="10.00" fill="white"> &#160;signature &#160;</text>
<text xml:space="preserve" text-anchor="start" x="718.25" y="-209.38" font-family="Helvetica,sans-Serif" font-size="6.00" fill="#78909c">struct</text>
<text xml:space="preserve" text-anchor="start" x="738.5" y="-210.47" font-family="Helvetica,sans-Serif" font-weight="bold" font-size="7.00" fill="#546e7a">■ Operation</text>
<text xml:space="preserve" text-anchor="start" x="718.25" y="-193.62" font-family="Helvetica,sans-Serif" font-size="6.00" fill="#78909c">struct</text>
<text xml:space="preserve" text-anchor="start" x="738.5" y="-194.72" font-family="Helvetica,sans-Serif" font-weight="bold" font-size="7.00" fill="#546e7a">■ LeaseRule</text>
<text xml:space="preserve" text-anchor="start" x="718.25" y="-177.88" font-family="Helvetica,sans-Serif" font-size="6.00" fill="#78909c">struct</text>
<text xml:space="preserve" text-anchor="start" x="738.5" y="-178.97" font-family="Helvetica,sans-Serif" font-weight="bold" font-size="7.00" fill="#546e7a">■ TargetDecl&lt;&#39;a&gt;</text>
<text xml:space="preserve" text-anchor="start" x="718.25" y="-162.5" font-family="Helvetica,sans-Serif" font-size="6.00" fill="#78909c">enum</text>
<text xml:space="preserve" text-anchor="start" x="738.5" y="-163.22" font-family="Helvetica,sans-Serif" font-weight="bold" font-size="7.00" fill="#546e7a">▲ Projection</text>
<text xml:space="preserve" text-anchor="start" x="718.25" y="-147.5" font-family="Helvetica,sans-Serif" font-size="6.00" fill="#78909c">enum</text>
<text xml:space="preserve" text-anchor="start" x="738.5" y="-148.22" font-family="Helvetica,sans-Serif" font-weight="bold" font-size="7.00" fill="#546e7a">▲ GrammarHook</text>
<text xml:space="preserve" text-anchor="start" x="718.25" y="-132.12" font-family="Helvetica,sans-Serif" font-size="6.00" fill="#78909c">struct</text>
<text xml:space="preserve" text-anchor="start" x="738.5" y="-133.22" font-family="Helvetica,sans-Serif" font-weight="bold" font-size="7.00" fill="#546e7a">■ Signature&lt;&#39;a&gt;</text>
<polygon fill="#666666" stroke="#666666" points="713.25,-219.12 713.25,-219.12 801.25,-219.12 801.25,-219.12 713.25,-219.12"/>
<polygon fill="#666666" stroke="#666666" points="713.25,-203.38 713.25,-203.38 735.5,-203.38 735.5,-203.38 713.25,-203.38"/>
<polygon fill="#666666" stroke="#666666" points="735.5,-203.38 735.5,-203.38 801.25,-203.38 801.25,-203.38 735.5,-203.38"/>
<polygon fill="#666666" stroke="#666666" points="713.25,-187.62 713.25,-187.62 735.5,-187.62 735.5,-187.62 713.25,-187.62"/>
<polygon fill="#666666" stroke="#666666" points="735.5,-187.62 735.5,-187.62 801.25,-187.62 801.25,-187.62 735.5,-187.62"/>
<polygon fill="#666666" stroke="#666666" points="713.25,-171.88 713.25,-171.88 735.5,-171.88 735.5,-171.88 713.25,-171.88"/>
<polygon fill="#666666" stroke="#666666" points="735.5,-171.88 735.5,-171.88 801.25,-171.88 801.25,-171.88 735.5,-171.88"/>
<polygon fill="#666666" stroke="#666666" points="713.25,-156.88 713.25,-156.88 735.5,-156.88 735.5,-156.88 713.25,-156.88"/>
<polygon fill="#666666" stroke="#666666" points="735.5,-156.88 735.5,-156.88 801.25,-156.88 801.25,-156.88 735.5,-156.88"/>
<polygon fill="#666666" stroke="#666666" points="713.25,-141.88 713.25,-141.88 735.5,-141.88 735.5,-141.88 713.25,-141.88"/>
<polygon fill="#666666" stroke="#666666" points="735.5,-141.88 735.5,-141.88 801.25,-141.88 801.25,-141.88 735.5,-141.88"/>
<path fill="none" stroke="#666666" stroke-width="2" d="M726.25,-125.12C726.25,-125.12 788.25,-125.12 788.25,-125.12 794.25,-125.12 800.25,-131.12 800.25,-137.12 800.25,-137.12 800.25,-225.38 800.25,-225.38 800.25,-231.38 794.25,-237.38 788.25,-237.38 788.25,-237.38 726.25,-237.38 726.25,-237.38 720.25,-237.38 714.25,-231.38 714.25,-225.38 714.25,-225.38 714.25,-137.12 714.25,-137.12 714.25,-131.12 720.25,-125.12 726.25,-125.12"/>
</g>
<!-- vehje_ir&#45;&gt;vehje_signature -->
<g id="edge10" class="edge">
<title>vehje_ir&#45;&gt;vehje_signature</title>
<path fill="none" stroke="#bbbbbb" stroke-width="0.8" d="M757.25,-35.95C757.25,-55.51 757.25,-88.79 757.25,-118.47"/>
<polygon fill="#bbbbbb" stroke="#bbbbbb" stroke-width="0.8" points="755.5,-118.14 757.25,-123.14 759,-118.14 755.5,-118.14"/>
</g>
<!-- vehje_resolve&#45;&gt;vehje_typecheck -->
<g id="edge11" class="edge">
<title>vehje_resolve&#45;&gt;vehje_typecheck</title>
<path fill="none" stroke="#bbbbbb" stroke-width="0.8" d="M417.81,-231.45C388.34,-261.39 350.69,-299.63 320.54,-330.26"/>
<polygon fill="#bbbbbb" stroke="#bbbbbb" stroke-width="0.8" points="319.64,-328.68 317.38,-333.47 322.13,-331.14 319.64,-328.68"/>
</g>
<!-- vehje_runtime_driver -->
<g id="node7" class="node">
<title>vehje_runtime_driver</title>
<path fill="#f0f0f0" stroke="none" d="M965.12,-351.12C965.12,-351.12 1203.38,-351.12 1203.38,-351.12 1209.38,-351.12 1215.38,-357.12 1215.38,-363.12 1215.38,-363.12 1215.38,-405.62 1215.38,-405.62 1215.38,-411.62 1209.38,-417.62 1203.38,-417.62 1203.38,-417.62 965.12,-417.62 965.12,-417.62 959.12,-417.62 953.12,-411.62 953.12,-405.62 953.12,-405.62 953.12,-363.12 953.12,-363.12 953.12,-357.12 959.12,-351.12 965.12,-351.12"/>
<polygon fill="#666666" stroke="none" points="954.12,-399.38 954.12,-416.62 1214.38,-416.62 1214.38,-399.38 954.12,-399.38"/>
<text xml:space="preserve" text-anchor="start" x="1045.25" y="-405.12" font-family="Helvetica,sans-Serif" font-weight="bold" font-size="10.00" fill="white"> &#160;runtime&#45;driver &#160;</text>
<text xml:space="preserve" text-anchor="start" x="957.12" y="-390" font-family="Helvetica,sans-Serif" font-size="6.00" fill="#78909c">enum</text>
<text xml:space="preserve" text-anchor="start" x="977.38" y="-390.73" font-family="Helvetica,sans-Serif" font-weight="bold" font-size="7.00" fill="#546e7a">▲ DriverError</text>
<text xml:space="preserve" text-anchor="start" x="957.12" y="-374.25" font-family="Helvetica,sans-Serif" font-size="6.00" fill="#78909c">fn</text>
<text xml:space="preserve" text-anchor="start" x="977.38" y="-374.77" font-family="Helvetica,sans-Serif" font-weight="bold" font-size="7.00" fill="#546e7a">ƒ dispatch</text>
<text xml:space="preserve" text-anchor="start" x="1012.62" y="-374.77" font-family="Helvetica,sans-Serif" font-size="8.00">(_residual: &amp;Residual&lt;&#39;_&gt;) → Outcome&lt;(), DriverError&gt;</text>
<text xml:space="preserve" text-anchor="start" x="957.12" y="-358.12" font-family="Helvetica,sans-Serif" font-size="6.00" fill="#78909c">struct</text>
<text xml:space="preserve" text-anchor="start" x="977.38" y="-359.23" font-family="Helvetica,sans-Serif" font-weight="bold" font-size="7.00" fill="#546e7a">■ Reader&lt;&#39;a&gt;</text>
<polygon fill="#666666" stroke="#666666" points="952.12,-399.38 952.12,-399.38 1216.38,-399.38 1216.38,-399.38 952.12,-399.38"/>
<polygon fill="#666666" stroke="#666666" points="952.12,-384.38 952.12,-384.38 974.38,-384.38 974.38,-384.38 952.12,-384.38"/>
<polygon fill="#666666" stroke="#666666" points="974.38,-384.38 974.38,-384.38 1216.38,-384.38 1216.38,-384.38 974.38,-384.38"/>
<polygon fill="#666666" stroke="#666666" points="952.12,-367.88 952.12,-367.88 974.38,-367.88 974.38,-367.88 952.12,-367.88"/>
<polygon fill="#666666" stroke="#666666" points="974.38,-367.88 974.38,-367.88 1216.38,-367.88 1216.38,-367.88 974.38,-367.88"/>
<path fill="none" stroke="#666666" stroke-width="2" d="M965.12,-351.12C965.12,-351.12 1203.38,-351.12 1203.38,-351.12 1209.38,-351.12 1215.38,-357.12 1215.38,-363.12 1215.38,-363.12 1215.38,-405.62 1215.38,-405.62 1215.38,-411.62 1209.38,-417.62 1203.38,-417.62 1203.38,-417.62 965.12,-417.62 965.12,-417.62 959.12,-417.62 953.12,-411.62 953.12,-405.62 953.12,-405.62 953.12,-363.12 953.12,-363.12 953.12,-357.12 959.12,-351.12 965.12,-351.12"/>
</g>
<!-- vehje_runtime_abi&#45;&gt;vehje_runtime_driver -->
<g id="edge6" class="edge">
<title>vehje_runtime_abi&#45;&gt;vehje_runtime_driver</title>
<path fill="none" stroke="#bbbbbb" stroke-width="0.8" d="M1072.34,-199.05C1074.39,-230.79 1078.88,-300.32 1081.73,-344.33"/>
<polygon fill="#bbbbbb" stroke="#bbbbbb" stroke-width="0.8" points="1079.97,-344.28 1082.04,-349.15 1083.46,-344.05 1079.97,-344.28"/>
</g>
<!-- vehje_runtime_gen -->
<g id="node8" class="node">
<title>vehje_runtime_gen</title>
<path fill="#f0f0f0" stroke="none" d="M578.62,-327.5C578.62,-327.5 909.88,-327.5 909.88,-327.5 915.88,-327.5 921.88,-333.5 921.88,-339.5 921.88,-339.5 921.88,-429.25 921.88,-429.25 921.88,-435.25 915.88,-441.25 909.88,-441.25 909.88,-441.25 578.62,-441.25 578.62,-441.25 572.62,-441.25 566.62,-435.25 566.62,-429.25 566.62,-429.25 566.62,-339.5 566.62,-339.5 566.62,-333.5 572.62,-327.5 578.62,-327.5"/>
<polygon fill="#666666" stroke="none" points="567.62,-423 567.62,-440.25 920.88,-440.25 920.88,-423 567.62,-423"/>
<text xml:space="preserve" text-anchor="start" x="710.12" y="-428.75" font-family="Helvetica,sans-Serif" font-weight="bold" font-size="10.00" fill="white"> &#160;runtime&#45;gen &#160;</text>
<text xml:space="preserve" text-anchor="start" x="570.62" y="-413.62" font-family="Helvetica,sans-Serif" font-size="6.00" fill="#78909c">enum</text>
<text xml:space="preserve" text-anchor="start" x="590.88" y="-414.35" font-family="Helvetica,sans-Serif" font-weight="bold" font-size="7.00" fill="#546e7a">▲ SliceKind</text>
<text xml:space="preserve" text-anchor="start" x="570.62" y="-398.25" font-family="Helvetica,sans-Serif" font-size="6.00" fill="#78909c">struct</text>
<text xml:space="preserve" text-anchor="start" x="590.88" y="-399.35" font-family="Helvetica,sans-Serif" font-weight="bold" font-size="7.00" fill="#546e7a">■ Slice&lt;&#39;a&gt;</text>
<text xml:space="preserve" text-anchor="start" x="570.62" y="-382.5" font-family="Helvetica,sans-Serif" font-size="6.00" fill="#78909c">struct</text>
<text xml:space="preserve" text-anchor="start" x="590.88" y="-383.6" font-family="Helvetica,sans-Serif" font-weight="bold" font-size="7.00" fill="#546e7a">■ Package&lt;&#39;a&gt;</text>
<text xml:space="preserve" text-anchor="start" x="570.62" y="-366.75" font-family="Helvetica,sans-Serif" font-size="6.00" fill="#78909c">struct</text>
<text xml:space="preserve" text-anchor="start" x="590.88" y="-367.85" font-family="Helvetica,sans-Serif" font-weight="bold" font-size="7.00" fill="#546e7a">■ Manifest</text>
<text xml:space="preserve" text-anchor="start" x="570.62" y="-351" font-family="Helvetica,sans-Serif" font-size="6.00" fill="#78909c">struct</text>
<text xml:space="preserve" text-anchor="start" x="590.88" y="-352.1" font-family="Helvetica,sans-Serif" font-weight="bold" font-size="7.00" fill="#546e7a">■ DifferentialCheck</text>
<text xml:space="preserve" text-anchor="start" x="570.62" y="-334.88" font-family="Helvetica,sans-Serif" font-size="6.00" fill="#78909c">fn</text>
<text xml:space="preserve" text-anchor="start" x="590.88" y="-335.4" font-family="Helvetica,sans-Serif" font-weight="bold" font-size="7.00" fill="#546e7a">ƒ generate&lt;&#39;a&gt;</text>
<text xml:space="preserve" text-anchor="start" x="638.88" y="-335.4" font-family="Helvetica,sans-Serif" font-size="8.00">(_signature: &amp;Signature&lt;&#39;a&gt;, slices: &amp;&#39;a [Slice&lt;&#39;a&gt;]) → (Package&lt;&#39;a&gt;, Manifest)</text>
<polygon fill="#666666" stroke="#666666" points="565.62,-423 565.62,-423 922.88,-423 922.88,-423 565.62,-423"/>
<polygon fill="#666666" stroke="#666666" points="565.62,-408 565.62,-408 587.88,-408 587.88,-408 565.62,-408"/>
<polygon fill="#666666" stroke="#666666" points="587.88,-408 587.88,-408 922.88,-408 922.88,-408 587.88,-408"/>
<polygon fill="#666666" stroke="#666666" points="565.62,-392.25 565.62,-392.25 587.88,-392.25 587.88,-392.25 565.62,-392.25"/>
<polygon fill="#666666" stroke="#666666" points="587.88,-392.25 587.88,-392.25 922.88,-392.25 922.88,-392.25 587.88,-392.25"/>
<polygon fill="#666666" stroke="#666666" points="565.62,-376.5 565.62,-376.5 587.88,-376.5 587.88,-376.5 565.62,-376.5"/>
<polygon fill="#666666" stroke="#666666" points="587.88,-376.5 587.88,-376.5 922.88,-376.5 922.88,-376.5 587.88,-376.5"/>
<polygon fill="#666666" stroke="#666666" points="565.62,-360.75 565.62,-360.75 587.88,-360.75 587.88,-360.75 565.62,-360.75"/>
<polygon fill="#666666" stroke="#666666" points="587.88,-360.75 587.88,-360.75 922.88,-360.75 922.88,-360.75 587.88,-360.75"/>
<polygon fill="#666666" stroke="#666666" points="565.62,-345 565.62,-345 587.88,-345 587.88,-345 565.62,-345"/>
<polygon fill="#666666" stroke="#666666" points="587.88,-345 587.88,-345 922.88,-345 922.88,-345 587.88,-345"/>
<path fill="none" stroke="#666666" stroke-width="2" d="M578.62,-327.5C578.62,-327.5 909.88,-327.5 909.88,-327.5 915.88,-327.5 921.88,-333.5 921.88,-339.5 921.88,-339.5 921.88,-429.25 921.88,-429.25 921.88,-435.25 915.88,-441.25 909.88,-441.25 909.88,-441.25 578.62,-441.25 578.62,-441.25 572.62,-441.25 566.62,-435.25 566.62,-429.25 566.62,-429.25 566.62,-339.5 566.62,-339.5 566.62,-333.5 572.62,-327.5 578.62,-327.5"/>
</g>
<!-- vehje_schedule&#45;&gt;vehje_runtime_driver -->
<g id="edge7" class="edge">
<title>vehje_schedule&#45;&gt;vehje_runtime_driver</title>
<path fill="none" stroke="#bbbbbb" stroke-width="0.8" d="M961.41,-222.95C988.92,-258.87 1028.69,-310.82 1055.46,-345.77"/>
<polygon fill="#bbbbbb" stroke="#bbbbbb" stroke-width="0.8" points="1053.82,-346.51 1058.25,-349.42 1056.6,-344.38 1053.82,-346.51"/>
</g>
<!-- vehje_signature&#45;&gt;vehje_runtime_gen -->
<g id="edge8" class="edge">
<title>vehje_signature&#45;&gt;vehje_runtime_gen</title>
<path fill="none" stroke="#bbbbbb" stroke-width="0.8" d="M753.63,-238.27C751.97,-263.88 750.01,-294.32 748.3,-320.69"/>
<polygon fill="#bbbbbb" stroke="#bbbbbb" stroke-width="0.8" points="746.57,-320.29 748,-325.4 750.07,-320.52 746.57,-320.29"/>
</g>
<!-- vehje_signature&#45;&gt;vehje_typecheck -->
<g id="edge12" class="edge">
<title>vehje_signature&#45;&gt;vehje_typecheck</title>
<path fill="none" stroke="#bbbbbb" stroke-width="0.8" d="M718.33,-238.23C712.45,-244.3 706.06,-249.92 699.25,-254.5 648.88,-288.4 589.36,-313.6 530.88,-332.25"/>
<polygon fill="#bbbbbb" stroke="#bbbbbb" stroke-width="0.8" points="530.62,-330.5 526.38,-333.67 531.68,-333.84 530.62,-330.5"/>
</g>
<!-- vehje_typecheck&#45;&gt;vehje_codegen -->
<g id="edge1" class="edge">
<title>vehje_typecheck&#45;&gt;vehje_codegen</title>
<path fill="none" stroke="#bbbbbb" stroke-width="0.8" d="M268.25,-434.4C268.25,-457.37 268.25,-484.78 268.25,-508.24"/>
<polygon fill="#bbbbbb" stroke="#bbbbbb" stroke-width="0.8" points="266.5,-508.22 268.25,-513.22 270,-508.22 266.5,-508.22"/>
</g>
</g>
</svg>
