<!--
  AUTO-GENERATED — DO NOT EDIT DIRECTLY

  Generated by: mockspace (mock)
  Generated at: 2026-07-23T23:06:41Z
  Source: mock/
  To regenerate: cargo mock
-->

<?xml version="1.0" encoding="UTF-8" standalone="no"?>
<!DOCTYPE svg PUBLIC "-//W3C//DTD SVG 1.1//EN"
 "http://www.w3.org/Graphics/SVG/1.1/DTD/svg11.dtd">
<!-- Generated by graphviz version 15.1.0 (20260618.0150)
 -->
<!-- Title: vehje Pages: 1 -->
<svg width="1234pt" height="754pt"
 viewBox="0.00 0.00 1234.00 754.00" xmlns="http://www.w3.org/2000/svg" xmlns:xlink="http://www.w3.org/1999/xlink">
<g id="graph0" class="graph" transform="scale(1 1) rotate(0) translate(57.6 696.85)">
<title>vehje</title>
<polygon fill="#fafafa" stroke="none" points="-57.6,57.6 -57.6,-696.85 1176.21,-696.85 1176.21,57.6 -57.6,57.6"/>
<text xml:space="preserve" text-anchor="start" x="10" y="-617.15" font-family="Helvetica,sans-Serif" font-weight="bold" font-size="18.00" fill="#37474f">vehje</text>
<text xml:space="preserve" text-anchor="start" x="10" y="-603" font-family="Helvetica,sans-Serif" font-size="9.00" fill="#999999">crate architecture</text>
<!-- vehje_codegen -->
<g id="node1" class="node">
<title>vehje_codegen</title>
<path fill="#f0f0f0" stroke="none" d="M73.99,-499.5C73.99,-499.5 402.99,-499.5 402.99,-499.5 408.99,-499.5 414.99,-505.5 414.99,-511.5 414.99,-511.5 414.99,-581.75 414.99,-581.75 414.99,-587.75 408.99,-593.75 402.99,-593.75 402.99,-593.75 73.99,-593.75 73.99,-593.75 67.99,-593.75 61.99,-587.75 61.99,-581.75 61.99,-581.75 61.99,-511.5 61.99,-511.5 61.99,-505.5 67.99,-499.5 73.99,-499.5"/>
<polygon fill="#666666" stroke="none" points="62.99,-575.5 62.99,-592.75 413.99,-592.75 413.99,-575.5 62.99,-575.5"/>
<text xml:space="preserve" text-anchor="start" x="212.61" y="-581.25" font-family="Helvetica,sans-Serif" font-weight="bold" font-size="10.00" fill="white"> &#160;codegen &#160;</text>
<text xml:space="preserve" text-anchor="start" x="65.99" y="-565.75" font-family="Helvetica,sans-Serif" font-size="6.00" fill="#78909c">trait</text>
<text xml:space="preserve" text-anchor="start" x="86.24" y="-565.9" font-family="Helvetica,sans-Serif" font-weight="bold" font-size="7.00" fill="#546e7a">◆ Target</text>
<text xml:space="preserve" text-anchor="start" x="114.74" y="-565.9" font-family="Helvetica,sans-Serif" font-size="8.00"> </text>
<text xml:space="preserve" text-anchor="start" x="116.99" y="-565.9" font-family="Helvetica,sans-Serif" font-size="5.00" fill="#aaaaaa">: core::fmt::Debug</text>
<text xml:space="preserve" text-anchor="start" x="86.24" y="-551.5" font-family="Helvetica,sans-Serif" font-size="5.00" fill="#90a4ae">ƒ emit&lt;S: ByteEmitter&gt;(checked: &amp;Checked&lt;&#39;_, Self&gt;, sink: &amp;mut S) → Outcome&lt;(), CodegenError&gt;</text>
<text xml:space="preserve" text-anchor="start" x="65.99" y="-536.88" font-family="Helvetica,sans-Serif" font-size="6.00" fill="#78909c">fn</text>
<text xml:space="preserve" text-anchor="start" x="86.24" y="-537.4" font-family="Helvetica,sans-Serif" font-weight="bold" font-size="7.00" fill="#546e7a">ƒ check_for&lt;&#39;a, T, Families, Effects&gt;</text>
<text xml:space="preserve" text-anchor="start" x="205.49" y="-537.4" font-family="Helvetica,sans-Serif" font-size="8.00">(arena: &amp;&#39;a Arena&lt;&#39;a&gt;, root: NodeRef) → Checked&lt;&#39;a, T&gt;</text>
<text xml:space="preserve" text-anchor="start" x="65.99" y="-521.12" font-family="Helvetica,sans-Serif" font-size="6.00" fill="#78909c">fn</text>
<text xml:space="preserve" text-anchor="start" x="86.24" y="-520.9" font-family="Helvetica,sans-Serif" font-weight="bold" font-size="7.00" fill="#546e7a">ƒ fold_core&lt;F: FnMut(&amp;Node)&gt;</text>
<text xml:space="preserve" text-anchor="start" x="190.49" y="-520.9" font-family="Helvetica,sans-Serif" font-size="8.00">(arena: &amp;Arena&lt;&#39;_&gt;, at: NodeRef, visit: &amp;mut F)</text>
<text xml:space="preserve" text-anchor="start" x="65.99" y="-506.12" font-family="Helvetica,sans-Serif" font-size="6.00" fill="#78909c">enum</text>
<text xml:space="preserve" text-anchor="start" x="86.24" y="-506.85" font-family="Helvetica,sans-Serif" font-weight="bold" font-size="7.00" fill="#546e7a">▲ CodegenError</text>
<polygon fill="#666666" stroke="#666666" points="60.99,-575.5 60.99,-575.5 415.99,-575.5 415.99,-575.5 60.99,-575.5"/>
<polygon fill="#666666" stroke="#666666" points="60.99,-547 60.99,-547 83.24,-547 83.24,-547 60.99,-547"/>
<polygon fill="#666666" stroke="#666666" points="83.24,-547 83.24,-547 415.99,-547 415.99,-547 83.24,-547"/>
<polygon fill="#666666" stroke="#666666" points="60.99,-530.5 60.99,-530.5 83.24,-530.5 83.24,-530.5 60.99,-530.5"/>
<polygon fill="#666666" stroke="#666666" points="83.24,-530.5 83.24,-530.5 415.99,-530.5 415.99,-530.5 83.24,-530.5"/>
<polygon fill="#666666" stroke="#666666" points="60.99,-515.5 60.99,-515.5 83.24,-515.5 83.24,-515.5 60.99,-515.5"/>
<polygon fill="#666666" stroke="#666666" points="83.24,-515.5 83.24,-515.5 415.99,-515.5 415.99,-515.5 83.24,-515.5"/>
<path fill="none" stroke="#666666" stroke-width="2" d="M73.99,-499.5C73.99,-499.5 402.99,-499.5 402.99,-499.5 408.99,-499.5 414.99,-505.5 414.99,-511.5 414.99,-511.5 414.99,-581.75 414.99,-581.75 414.99,-587.75 408.99,-593.75 402.99,-593.75 402.99,-593.75 73.99,-593.75 73.99,-593.75 67.99,-593.75 61.99,-587.75 61.99,-581.75 61.99,-581.75 61.99,-511.5 61.99,-511.5 61.99,-505.5 67.99,-499.5 73.99,-499.5"/>
</g>
<!-- vehje_fixpoint -->
<g id="node2" class="node">
<title>vehje_fixpoint</title>
<path fill="#f0f0f0" stroke="none" d="M17.03,-1.25C17.03,-1.25 49.95,-1.25 49.95,-1.25 55.53,-1.25 61.11,-6.83 61.11,-12.42 61.11,-12.42 61.11,-23.58 61.11,-23.58 61.11,-29.17 55.53,-34.75 49.95,-34.75 49.95,-34.75 17.03,-34.75 17.03,-34.75 11.45,-34.75 5.86,-29.17 5.86,-23.58 5.86,-23.58 5.86,-12.42 5.86,-12.42 5.86,-6.83 11.45,-1.25 17.03,-1.25"/>
<polygon fill="#666666" stroke="none" points="6.86,-16.5 6.86,-33.75 60.11,-33.75 60.11,-16.5 6.86,-16.5"/>
<text xml:space="preserve" text-anchor="start" x="9.86" y="-22.25" font-family="Helvetica,sans-Serif" font-weight="bold" font-size="10.00" fill="white"> &#160;fixpoint &#160;</text>
<text xml:space="preserve" text-anchor="start" x="21.49" y="-7.85" font-family="Helvetica,sans-Serif" font-style="italic" font-size="7.00" fill="#999999">(empty)</text>
<path fill="none" stroke="#666666" stroke-width="2" d="M17.03,-1.25C17.03,-1.25 49.95,-1.25 49.95,-1.25 55.53,-1.25 61.11,-6.83 61.11,-12.42 61.11,-12.42 61.11,-23.58 61.11,-23.58 61.11,-29.17 55.53,-34.75 49.95,-34.75 49.95,-34.75 17.03,-34.75 17.03,-34.75 11.45,-34.75 5.86,-29.17 5.86,-23.58 5.86,-23.58 5.86,-12.42 5.86,-12.42 5.86,-6.83 11.45,-1.25 17.03,-1.25"/>
</g>
<!-- vehje_lower -->
<g id="node4" class="node">
<title>vehje_lower</title>
<path fill="#f0f0f0" stroke="none" d="M46.49,-109C46.49,-109 108.49,-109 108.49,-109 114.49,-109 120.49,-115 120.49,-121 120.49,-121 120.49,-225.75 120.49,-225.75 120.49,-231.75 114.49,-237.75 108.49,-237.75 108.49,-237.75 46.49,-237.75 46.49,-237.75 40.49,-237.75 34.49,-231.75 34.49,-225.75 34.49,-225.75 34.49,-121 34.49,-121 34.49,-115 40.49,-109 46.49,-109"/>
<polygon fill="#666666" stroke="none" points="35.49,-219.5 35.49,-236.75 119.49,-236.75 119.49,-219.5 35.49,-219.5"/>
<text xml:space="preserve" text-anchor="start" x="58.74" y="-225.25" font-family="Helvetica,sans-Serif" font-weight="bold" font-size="10.00" fill="white"> &#160;lower &#160;</text>
<text xml:space="preserve" text-anchor="start" x="38.49" y="-210.12" font-family="Helvetica,sans-Serif" font-size="6.00" fill="#78909c">enum</text>
<text xml:space="preserve" text-anchor="start" x="58.74" y="-210.85" font-family="Helvetica,sans-Serif" font-weight="bold" font-size="7.00" fill="#546e7a">▲ LowerStrategy</text>
<text xml:space="preserve" text-anchor="start" x="38.49" y="-194.75" font-family="Helvetica,sans-Serif" font-size="6.00" fill="#78909c">struct</text>
<text xml:space="preserve" text-anchor="start" x="58.74" y="-195.85" font-family="Helvetica,sans-Serif" font-weight="bold" font-size="7.00" fill="#546e7a">■ RuleTable</text>
<text xml:space="preserve" text-anchor="start" x="38.49" y="-179" font-family="Helvetica,sans-Serif" font-size="6.00" fill="#78909c">struct</text>
<text xml:space="preserve" text-anchor="start" x="58.74" y="-180.1" font-family="Helvetica,sans-Serif" font-weight="bold" font-size="7.00" fill="#546e7a">■ ConstFold</text>
<text xml:space="preserve" text-anchor="start" x="38.49" y="-163.25" font-family="Helvetica,sans-Serif" font-size="6.00" fill="#78909c">struct</text>
<text xml:space="preserve" text-anchor="start" x="58.74" y="-164.35" font-family="Helvetica,sans-Serif" font-weight="bold" font-size="7.00" fill="#546e7a">■ Cse</text>
<text xml:space="preserve" text-anchor="start" x="38.49" y="-147.5" font-family="Helvetica,sans-Serif" font-size="6.00" fill="#78909c">struct</text>
<text xml:space="preserve" text-anchor="start" x="58.74" y="-148.6" font-family="Helvetica,sans-Serif" font-weight="bold" font-size="7.00" fill="#546e7a">■ Anf</text>
<text xml:space="preserve" text-anchor="start" x="38.49" y="-131.75" font-family="Helvetica,sans-Serif" font-size="6.00" fill="#78909c">struct</text>
<text xml:space="preserve" text-anchor="start" x="58.74" y="-132.85" font-family="Helvetica,sans-Serif" font-weight="bold" font-size="7.00" fill="#546e7a">■ MacroExpand</text>
<text xml:space="preserve" text-anchor="start" x="38.49" y="-116" font-family="Helvetica,sans-Serif" font-size="6.00" fill="#78909c">struct</text>
<text xml:space="preserve" text-anchor="start" x="58.74" y="-117.1" font-family="Helvetica,sans-Serif" font-weight="bold" font-size="7.00" fill="#546e7a">■ Lower</text>
<polygon fill="#666666" stroke="#666666" points="33.49,-219.5 33.49,-219.5 121.49,-219.5 121.49,-219.5 33.49,-219.5"/>
<polygon fill="#666666" stroke="#666666" points="33.49,-204.5 33.49,-204.5 55.74,-204.5 55.74,-204.5 33.49,-204.5"/>
<polygon fill="#666666" stroke="#666666" points="55.74,-204.5 55.74,-204.5 121.49,-204.5 121.49,-204.5 55.74,-204.5"/>
<polygon fill="#666666" stroke="#666666" points="33.49,-188.75 33.49,-188.75 55.74,-188.75 55.74,-188.75 33.49,-188.75"/>
<polygon fill="#666666" stroke="#666666" points="55.74,-188.75 55.74,-188.75 121.49,-188.75 121.49,-188.75 55.74,-188.75"/>
<polygon fill="#666666" stroke="#666666" points="33.49,-173 33.49,-173 55.74,-173 55.74,-173 33.49,-173"/>
<polygon fill="#666666" stroke="#666666" points="55.74,-173 55.74,-173 121.49,-173 121.49,-173 55.74,-173"/>
<polygon fill="#666666" stroke="#666666" points="33.49,-157.25 33.49,-157.25 55.74,-157.25 55.74,-157.25 33.49,-157.25"/>
<polygon fill="#666666" stroke="#666666" points="55.74,-157.25 55.74,-157.25 121.49,-157.25 121.49,-157.25 55.74,-157.25"/>
<polygon fill="#666666" stroke="#666666" points="33.49,-141.5 33.49,-141.5 55.74,-141.5 55.74,-141.5 33.49,-141.5"/>
<polygon fill="#666666" stroke="#666666" points="55.74,-141.5 55.74,-141.5 121.49,-141.5 121.49,-141.5 55.74,-141.5"/>
<polygon fill="#666666" stroke="#666666" points="33.49,-125.75 33.49,-125.75 55.74,-125.75 55.74,-125.75 33.49,-125.75"/>
<polygon fill="#666666" stroke="#666666" points="55.74,-125.75 55.74,-125.75 121.49,-125.75 121.49,-125.75 55.74,-125.75"/>
<path fill="none" stroke="#666666" stroke-width="2" d="M46.49,-109C46.49,-109 108.49,-109 108.49,-109 114.49,-109 120.49,-115 120.49,-121 120.49,-121 120.49,-225.75 120.49,-225.75 120.49,-231.75 114.49,-237.75 108.49,-237.75 108.49,-237.75 46.49,-237.75 46.49,-237.75 40.49,-237.75 34.49,-231.75 34.49,-225.75 34.49,-225.75 34.49,-121 34.49,-121 34.49,-115 40.49,-109 46.49,-109"/>
</g>
<!-- vehje_fixpoint&#45;&gt;vehje_lower -->
<g id="edge3" class="edge">
<title>vehje_fixpoint&#45;&gt;vehje_lower</title>
<path fill="none" stroke="#bbbbbb" stroke-width="0.8" d="M38.37,-36C43.01,-52.17 50.3,-77.62 57.35,-102.17"/>
<polygon fill="#bbbbbb" stroke="#bbbbbb" stroke-width="0.8" points="55.64,-102.56 58.7,-106.89 59.01,-101.6 55.64,-102.56"/>
</g>
<!-- vehje_typecheck -->
<g id="node11" class="node">
<title>vehje_typecheck</title>
<path fill="#f0f0f0" stroke="none" d="M50.74,-335.38C50.74,-335.38 426.24,-335.38 426.24,-335.38 432.24,-335.38 438.24,-341.38 438.24,-347.38 438.24,-347.38 438.24,-389.88 438.24,-389.88 438.24,-395.88 432.24,-401.88 426.24,-401.88 426.24,-401.88 50.74,-401.88 50.74,-401.88 44.74,-401.88 38.74,-395.88 38.74,-389.88 38.74,-389.88 38.74,-347.38 38.74,-347.38 38.74,-341.38 44.74,-335.38 50.74,-335.38"/>
<polygon fill="#666666" stroke="none" points="39.74,-383.62 39.74,-400.88 437.24,-400.88 437.24,-383.62 39.74,-383.62"/>
<text xml:space="preserve" text-anchor="start" x="209.24" y="-389.38" font-family="Helvetica,sans-Serif" font-weight="bold" font-size="10.00" fill="white"> &#160;typecheck &#160;</text>
<text xml:space="preserve" text-anchor="start" x="42.74" y="-374.25" font-family="Helvetica,sans-Serif" font-size="6.00" fill="#78909c">enum</text>
<text xml:space="preserve" text-anchor="start" x="62.99" y="-374.98" font-family="Helvetica,sans-Serif" font-weight="bold" font-size="7.00" fill="#546e7a">▲ CheckError</text>
<text xml:space="preserve" text-anchor="start" x="42.74" y="-358.88" font-family="Helvetica,sans-Serif" font-size="6.00" fill="#78909c">struct</text>
<text xml:space="preserve" text-anchor="start" x="62.99" y="-359.98" font-family="Helvetica,sans-Serif" font-weight="bold" font-size="7.00" fill="#546e7a">■ Checked&lt;&#39;a, T&gt;</text>
<text xml:space="preserve" text-anchor="start" x="42.74" y="-342.75" font-family="Helvetica,sans-Serif" font-size="6.00" fill="#78909c">fn</text>
<text xml:space="preserve" text-anchor="start" x="62.99" y="-343.27" font-family="Helvetica,sans-Serif" font-weight="bold" font-size="7.00" fill="#546e7a">ƒ check</text>
<text xml:space="preserve" text-anchor="start" x="88.49" y="-343.27" font-family="Helvetica,sans-Serif" font-size="8.00">(arena: &amp;Arena&lt;&#39;_&gt;, root: NodeRef, grades: &amp;mut GradeTable&lt;&#39;_&gt;) → Outcome&lt;(), CheckError&gt;</text>
<polygon fill="#666666" stroke="#666666" points="37.74,-383.62 37.74,-383.62 439.24,-383.62 439.24,-383.62 37.74,-383.62"/>
<polygon fill="#666666" stroke="#666666" points="37.74,-368.62 37.74,-368.62 59.99,-368.62 59.99,-368.62 37.74,-368.62"/>
<polygon fill="#666666" stroke="#666666" points="59.99,-368.62 59.99,-368.62 439.24,-368.62 439.24,-368.62 59.99,-368.62"/>
<polygon fill="#666666" stroke="#666666" points="37.74,-352.88 37.74,-352.88 59.99,-352.88 59.99,-352.88 37.74,-352.88"/>
<polygon fill="#666666" stroke="#666666" points="59.99,-352.88 59.99,-352.88 439.24,-352.88 439.24,-352.88 59.99,-352.88"/>
<path fill="none" stroke="#666666" stroke-width="2" d="M50.74,-335.38C50.74,-335.38 426.24,-335.38 426.24,-335.38 432.24,-335.38 438.24,-341.38 438.24,-347.38 438.24,-347.38 438.24,-389.88 438.24,-389.88 438.24,-395.88 432.24,-401.88 426.24,-401.88 426.24,-401.88 50.74,-401.88 50.74,-401.88 44.74,-401.88 38.74,-395.88 38.74,-389.88 38.74,-389.88 38.74,-347.38 38.74,-347.38 38.74,-341.38 44.74,-335.38 50.74,-335.38"/>
</g>
<!-- vehje_fixpoint&#45;&gt;vehje_typecheck -->
<g id="edge13" class="edge">
<title>vehje_fixpoint&#45;&gt;vehje_typecheck</title>
<path fill="none" stroke="#bbbbbb" stroke-width="0.8" d="M26.42,-35.84C11.31,-74.63 -19.73,-172.06 18.49,-238.75 43.08,-281.66 88.11,-311.66 131.05,-331.85"/>
<polygon fill="#bbbbbb" stroke="#bbbbbb" stroke-width="0.8" points="130.18,-333.37 135.45,-333.88 131.64,-330.19 130.18,-333.37"/>
</g>
<!-- vehje_ir -->
<g id="node3" class="node">
<title>vehje_ir</title>
<path fill="#f0f0f0" stroke="none" d="M654.16,-1.25C654.16,-1.25 664.82,-1.25 664.82,-1.25 670.16,-1.25 675.49,-6.58 675.49,-11.92 675.49,-11.92 675.49,-24.08 675.49,-24.08 675.49,-29.42 670.16,-34.75 664.82,-34.75 664.82,-34.75 654.16,-34.75 654.16,-34.75 648.82,-34.75 643.49,-29.42 643.49,-24.08 643.49,-24.08 643.49,-11.92 643.49,-11.92 643.49,-6.58 648.82,-1.25 654.16,-1.25"/>
<polygon fill="#666666" stroke="none" points="644.49,-16.5 644.49,-33.75 674.49,-33.75 674.49,-16.5 644.49,-16.5"/>
<text xml:space="preserve" text-anchor="start" x="650.11" y="-22.25" font-family="Helvetica,sans-Serif" font-weight="bold" font-size="10.00" fill="white"> &#160;ir &#160;</text>
<text xml:space="preserve" text-anchor="start" x="647.49" y="-7.85" font-family="Helvetica,sans-Serif" font-style="italic" font-size="7.00" fill="#999999">(empty)</text>
<path fill="none" stroke="#666666" stroke-width="2" d="M654.16,-1.25C654.16,-1.25 664.82,-1.25 664.82,-1.25 670.16,-1.25 675.49,-6.58 675.49,-11.92 675.49,-11.92 675.49,-24.08 675.49,-24.08 675.49,-29.42 670.16,-34.75 664.82,-34.75 664.82,-34.75 654.16,-34.75 654.16,-34.75 648.82,-34.75 643.49,-29.42 643.49,-24.08 643.49,-24.08 643.49,-11.92 643.49,-11.92 643.49,-6.58 648.82,-1.25 654.16,-1.25"/>
</g>
<!-- vehje_ir&#45;&gt;vehje_lower -->
<g id="edge2" class="edge">
<title>vehje_ir&#45;&gt;vehje_lower</title>
<path fill="none" stroke="#bbbbbb" stroke-width="0.8" d="M632.49,-21.24C538,-29.42 223.11,-59.81 135.49,-108 132.2,-109.81 129,-111.87 125.91,-114.13"/>
<polygon fill="#bbbbbb" stroke="#bbbbbb" stroke-width="0.8" points="124.98,-112.64 122.09,-117.09 127.12,-115.41 124.98,-112.64"/>
</g>
<!-- vehje_resolve -->
<g id="node5" class="node">
<title>vehje_resolve</title>
<path fill="#f0f0f0" stroke="none" d="M163.49,-124C163.49,-124 573.49,-124 573.49,-124 579.49,-124 585.49,-130 585.49,-136 585.49,-136 585.49,-210.75 585.49,-210.75 585.49,-216.75 579.49,-222.75 573.49,-222.75 573.49,-222.75 163.49,-222.75 163.49,-222.75 157.49,-222.75 151.49,-216.75 151.49,-210.75 151.49,-210.75 151.49,-136 151.49,-136 151.49,-130 157.49,-124 163.49,-124"/>
<polygon fill="#666666" stroke="none" points="152.49,-204.5 152.49,-221.75 584.49,-221.75 584.49,-204.5 152.49,-204.5"/>
<text xml:space="preserve" text-anchor="start" x="345.61" y="-210.25" font-family="Helvetica,sans-Serif" font-weight="bold" font-size="10.00" fill="white"> &#160;resolve &#160;</text>
<text xml:space="preserve" text-anchor="start" x="155.49" y="-194.75" font-family="Helvetica,sans-Serif" font-size="6.00" fill="#78909c">struct</text>
<text xml:space="preserve" text-anchor="start" x="175.74" y="-195.85" font-family="Helvetica,sans-Serif" font-weight="bold" font-size="7.00" fill="#546e7a">■ Scope&lt;&#39;p&gt;</text>
<text xml:space="preserve" text-anchor="start" x="155.49" y="-179.38" font-family="Helvetica,sans-Serif" font-size="6.00" fill="#78909c">enum</text>
<text xml:space="preserve" text-anchor="start" x="175.74" y="-180.1" font-family="Helvetica,sans-Serif" font-weight="bold" font-size="7.00" fill="#546e7a">▲ ResolveError</text>
<text xml:space="preserve" text-anchor="start" x="155.49" y="-163.62" font-family="Helvetica,sans-Serif" font-size="6.00" fill="#78909c">fn</text>
<text xml:space="preserve" text-anchor="start" x="175.74" y="-164.15" font-family="Helvetica,sans-Serif" font-weight="bold" font-size="7.00" fill="#546e7a">ƒ resolve</text>
<text xml:space="preserve" text-anchor="start" x="206.49" y="-164.15" font-family="Helvetica,sans-Serif" font-size="8.00">(arena: &amp;Arena&lt;&#39;_&gt;, root: NodeRef) → Outcome&lt;(), ResolveError&gt;</text>
<text xml:space="preserve" text-anchor="start" x="155.49" y="-147.5" font-family="Helvetica,sans-Serif" font-size="6.00" fill="#78909c">struct</text>
<text xml:space="preserve" text-anchor="start" x="175.74" y="-148.6" font-family="Helvetica,sans-Serif" font-weight="bold" font-size="7.00" fill="#546e7a">■ Resolution&lt;&#39;a&gt;</text>
<text xml:space="preserve" text-anchor="start" x="155.49" y="-131.38" font-family="Helvetica,sans-Serif" font-size="6.00" fill="#78909c">fn</text>
<text xml:space="preserve" text-anchor="start" x="175.74" y="-131.9" font-family="Helvetica,sans-Serif" font-weight="bold" font-size="7.00" fill="#546e7a">ƒ resolve_into</text>
<text xml:space="preserve" text-anchor="start" x="223.74" y="-131.9" font-family="Helvetica,sans-Serif" font-size="8.00">(arena: &amp;Arena&lt;&#39;_&gt;, root: NodeRef, resolution: &amp;mut Resolution&lt;&#39;_&gt;) → Outcome&lt;(), ResolveError&gt;</text>
<polygon fill="#666666" stroke="#666666" points="150.49,-204.5 150.49,-204.5 586.49,-204.5 586.49,-204.5 150.49,-204.5"/>
<polygon fill="#666666" stroke="#666666" points="150.49,-188.75 150.49,-188.75 172.74,-188.75 172.74,-188.75 150.49,-188.75"/>
<polygon fill="#666666" stroke="#666666" points="172.74,-188.75 172.74,-188.75 586.49,-188.75 586.49,-188.75 172.74,-188.75"/>
<polygon fill="#666666" stroke="#666666" points="150.49,-173.75 150.49,-173.75 172.74,-173.75 172.74,-173.75 150.49,-173.75"/>
<polygon fill="#666666" stroke="#666666" points="172.74,-173.75 172.74,-173.75 586.49,-173.75 586.49,-173.75 172.74,-173.75"/>
<polygon fill="#666666" stroke="#666666" points="150.49,-157.25 150.49,-157.25 172.74,-157.25 172.74,-157.25 150.49,-157.25"/>
<polygon fill="#666666" stroke="#666666" points="172.74,-157.25 172.74,-157.25 586.49,-157.25 586.49,-157.25 172.74,-157.25"/>
<polygon fill="#666666" stroke="#666666" points="150.49,-141.5 150.49,-141.5 172.74,-141.5 172.74,-141.5 150.49,-141.5"/>
<polygon fill="#666666" stroke="#666666" points="172.74,-141.5 172.74,-141.5 586.49,-141.5 586.49,-141.5 172.74,-141.5"/>
<path fill="none" stroke="#666666" stroke-width="2" d="M163.49,-124C163.49,-124 573.49,-124 573.49,-124 579.49,-124 585.49,-130 585.49,-136 585.49,-136 585.49,-210.75 585.49,-210.75 585.49,-216.75 579.49,-222.75 573.49,-222.75 573.49,-222.75 163.49,-222.75 163.49,-222.75 157.49,-222.75 151.49,-216.75 151.49,-210.75 151.49,-210.75 151.49,-136 151.49,-136 151.49,-130 157.49,-124 163.49,-124"/>
</g>
<!-- vehje_ir&#45;&gt;vehje_resolve -->
<g id="edge4" class="edge">
<title>vehje_ir&#45;&gt;vehje_resolve</title>
<path fill="none" stroke="#bbbbbb" stroke-width="0.8" d="M632.63,-33.15C595.28,-52.84 525.64,-89.55 467.24,-120.32"/>
<polygon fill="#bbbbbb" stroke="#bbbbbb" stroke-width="0.8" points="466.67,-118.65 463.06,-122.53 468.3,-121.75 466.67,-118.65"/>
</g>
<!-- vehje_runtime_abi -->
<g id="node6" class="node">
<title>vehje_runtime_abi</title>
<path fill="#f0f0f0" stroke="none" d="M948.03,-156.62C948.03,-156.62 998.95,-156.62 998.95,-156.62 1004.53,-156.62 1010.11,-162.21 1010.11,-167.79 1010.11,-167.79 1010.11,-178.96 1010.11,-178.96 1010.11,-184.54 1004.53,-190.12 998.95,-190.12 998.95,-190.12 948.03,-190.12 948.03,-190.12 942.45,-190.12 936.86,-184.54 936.86,-178.96 936.86,-178.96 936.86,-167.79 936.86,-167.79 936.86,-162.21 942.45,-156.62 948.03,-156.62"/>
<polygon fill="#666666" stroke="none" points="937.86,-171.88 937.86,-189.12 1009.11,-189.12 1009.11,-171.88 937.86,-171.88"/>
<text xml:space="preserve" text-anchor="start" x="940.86" y="-177.62" font-family="Helvetica,sans-Serif" font-weight="bold" font-size="10.00" fill="white"> &#160;runtime&#45;abi &#160;</text>
<text xml:space="preserve" text-anchor="start" x="961.49" y="-163.22" font-family="Helvetica,sans-Serif" font-style="italic" font-size="7.00" fill="#999999">(empty)</text>
<path fill="none" stroke="#666666" stroke-width="2" d="M948.03,-156.62C948.03,-156.62 998.95,-156.62 998.95,-156.62 1004.53,-156.62 1010.11,-162.21 1010.11,-167.79 1010.11,-167.79 1010.11,-178.96 1010.11,-178.96 1010.11,-184.54 1004.53,-190.12 998.95,-190.12 998.95,-190.12 948.03,-190.12 948.03,-190.12 942.45,-190.12 936.86,-184.54 936.86,-178.96 936.86,-178.96 936.86,-167.79 936.86,-167.79 936.86,-162.21 942.45,-156.62 948.03,-156.62"/>
</g>
<!-- vehje_ir&#45;&gt;vehje_runtime_abi -->
<g id="edge5" class="edge">
<title>vehje_ir&#45;&gt;vehje_runtime_abi</title>
<path fill="none" stroke="#bbbbbb" stroke-width="0.8" d="M686.24,-25.96C731.37,-38.37 824.64,-66.94 895.49,-108 916.28,-120.05 937.13,-137.61 952.03,-151.35"/>
<polygon fill="#bbbbbb" stroke="#bbbbbb" stroke-width="0.8" points="950.73,-152.52 955.58,-154.65 953.12,-149.96 950.73,-152.52"/>
</g>
<!-- vehje_schedule -->
<g id="node9" class="node">
<title>vehje_schedule</title>
<path fill="#f0f0f0" stroke="none" d="M796.61,-140.5C796.61,-140.5 868.36,-140.5 868.36,-140.5 874.36,-140.5 880.36,-146.5 880.36,-152.5 880.36,-152.5 880.36,-194.25 880.36,-194.25 880.36,-200.25 874.36,-206.25 868.36,-206.25 868.36,-206.25 796.61,-206.25 796.61,-206.25 790.61,-206.25 784.61,-200.25 784.61,-194.25 784.61,-194.25 784.61,-152.5 784.61,-152.5 784.61,-146.5 790.61,-140.5 796.61,-140.5"/>
<polygon fill="#666666" stroke="none" points="785.61,-188 785.61,-205.25 879.36,-205.25 879.36,-188 785.61,-188"/>
<text xml:space="preserve" text-anchor="start" x="805.49" y="-193.75" font-family="Helvetica,sans-Serif" font-weight="bold" font-size="10.00" fill="white"> &#160;schedule &#160;</text>
<text xml:space="preserve" text-anchor="start" x="788.61" y="-178.25" font-family="Helvetica,sans-Serif" font-size="6.00" fill="#78909c">trait</text>
<text xml:space="preserve" text-anchor="start" x="808.86" y="-178.4" font-family="Helvetica,sans-Serif" font-weight="bold" font-size="7.00" fill="#546e7a">◆ Pass</text>
<text xml:space="preserve" text-anchor="start" x="832.11" y="-178.4" font-family="Helvetica,sans-Serif" font-size="8.00"> </text>
<text xml:space="preserve" text-anchor="start" x="834.36" y="-178.4" font-family="Helvetica,sans-Serif" font-size="5.00" fill="#aaaaaa">: core::fmt::Debug</text>
<text xml:space="preserve" text-anchor="start" x="788.61" y="-162.88" font-family="Helvetica,sans-Serif" font-size="6.00" fill="#78909c">enum</text>
<text xml:space="preserve" text-anchor="start" x="808.86" y="-163.6" font-family="Helvetica,sans-Serif" font-weight="bold" font-size="7.00" fill="#546e7a">▲ ScheduleError</text>
<text xml:space="preserve" text-anchor="start" x="788.61" y="-147.5" font-family="Helvetica,sans-Serif" font-size="6.00" fill="#78909c">struct</text>
<text xml:space="preserve" text-anchor="start" x="808.86" y="-148.6" font-family="Helvetica,sans-Serif" font-weight="bold" font-size="7.00" fill="#546e7a">■ Schedule</text>
<polygon fill="#666666" stroke="#666666" points="783.61,-188 783.61,-188 881.36,-188 881.36,-188 783.61,-188"/>
<polygon fill="#666666" stroke="#666666" points="783.61,-172.25 783.61,-172.25 805.86,-172.25 805.86,-172.25 783.61,-172.25"/>
<polygon fill="#666666" stroke="#666666" points="805.86,-172.25 805.86,-172.25 881.36,-172.25 881.36,-172.25 805.86,-172.25"/>
<polygon fill="#666666" stroke="#666666" points="783.61,-157.25 783.61,-157.25 805.86,-157.25 805.86,-157.25 783.61,-157.25"/>
<polygon fill="#666666" stroke="#666666" points="805.86,-157.25 805.86,-157.25 881.36,-157.25 881.36,-157.25 805.86,-157.25"/>
<path fill="none" stroke="#666666" stroke-width="2" d="M796.61,-140.5C796.61,-140.5 868.36,-140.5 868.36,-140.5 874.36,-140.5 880.36,-146.5 880.36,-152.5 880.36,-152.5 880.36,-194.25 880.36,-194.25 880.36,-200.25 874.36,-206.25 868.36,-206.25 868.36,-206.25 796.61,-206.25 796.61,-206.25 790.61,-206.25 784.61,-200.25 784.61,-194.25 784.61,-194.25 784.61,-152.5 784.61,-152.5 784.61,-146.5 790.61,-140.5 796.61,-140.5"/>
</g>
<!-- vehje_ir&#45;&gt;vehje_schedule -->
<g id="edge9" class="edge">
<title>vehje_ir&#45;&gt;vehje_schedule</title>
<path fill="none" stroke="#bbbbbb" stroke-width="0.8" d="M678.66,-36C705.72,-59.98 755.76,-104.35 791.42,-135.96"/>
<polygon fill="#bbbbbb" stroke="#bbbbbb" stroke-width="0.8" points="789.89,-136.94 794.79,-138.95 792.21,-134.32 789.89,-136.94"/>
</g>
<!-- vehje_signature -->
<g id="node10" class="node">
<title>vehje_signature</title>
<path fill="#f0f0f0" stroke="none" d="M628.49,-117.25C628.49,-117.25 690.49,-117.25 690.49,-117.25 696.49,-117.25 702.49,-123.25 702.49,-129.25 702.49,-129.25 702.49,-217.5 702.49,-217.5 702.49,-223.5 696.49,-229.5 690.49,-229.5 690.49,-229.5 628.49,-229.5 628.49,-229.5 622.49,-229.5 616.49,-223.5 616.49,-217.5 616.49,-217.5 616.49,-129.25 616.49,-129.25 616.49,-123.25 622.49,-117.25 628.49,-117.25"/>
<polygon fill="#666666" stroke="none" points="617.49,-211.25 617.49,-228.5 701.49,-228.5 701.49,-211.25 617.49,-211.25"/>
<text xml:space="preserve" text-anchor="start" x="631.74" y="-217" font-family="Helvetica,sans-Serif" font-weight="bold" font-size="10.00" fill="white"> &#160;signature &#160;</text>
<text xml:space="preserve" text-anchor="start" x="620.49" y="-201.5" font-family="Helvetica,sans-Serif" font-size="6.00" fill="#78909c">struct</text>
<text xml:space="preserve" text-anchor="start" x="640.74" y="-202.6" font-family="Helvetica,sans-Serif" font-weight="bold" font-size="7.00" fill="#546e7a">■ Operation</text>
<text xml:space="preserve" text-anchor="start" x="620.49" y="-185.75" font-family="Helvetica,sans-Serif" font-size="6.00" fill="#78909c">struct</text>
<text xml:space="preserve" text-anchor="start" x="640.74" y="-186.85" font-family="Helvetica,sans-Serif" font-weight="bold" font-size="7.00" fill="#546e7a">■ LeaseRule</text>
<text xml:space="preserve" text-anchor="start" x="620.49" y="-170" font-family="Helvetica,sans-Serif" font-size="6.00" fill="#78909c">struct</text>
<text xml:space="preserve" text-anchor="start" x="640.74" y="-171.1" font-family="Helvetica,sans-Serif" font-weight="bold" font-size="7.00" fill="#546e7a">■ TargetDecl&lt;&#39;a&gt;</text>
<text xml:space="preserve" text-anchor="start" x="620.49" y="-154.62" font-family="Helvetica,sans-Serif" font-size="6.00" fill="#78909c">enum</text>
<text xml:space="preserve" text-anchor="start" x="640.74" y="-155.35" font-family="Helvetica,sans-Serif" font-weight="bold" font-size="7.00" fill="#546e7a">▲ Projection</text>
<text xml:space="preserve" text-anchor="start" x="620.49" y="-139.62" font-family="Helvetica,sans-Serif" font-size="6.00" fill="#78909c">enum</text>
<text xml:space="preserve" text-anchor="start" x="640.74" y="-140.35" font-family="Helvetica,sans-Serif" font-weight="bold" font-size="7.00" fill="#546e7a">▲ GrammarHook</text>
<text xml:space="preserve" text-anchor="start" x="620.49" y="-124.25" font-family="Helvetica,sans-Serif" font-size="6.00" fill="#78909c">struct</text>
<text xml:space="preserve" text-anchor="start" x="640.74" y="-125.35" font-family="Helvetica,sans-Serif" font-weight="bold" font-size="7.00" fill="#546e7a">■ Signature&lt;&#39;a&gt;</text>
<polygon fill="#666666" stroke="#666666" points="615.49,-211.25 615.49,-211.25 703.49,-211.25 703.49,-211.25 615.49,-211.25"/>
<polygon fill="#666666" stroke="#666666" points="615.49,-195.5 615.49,-195.5 637.74,-195.5 637.74,-195.5 615.49,-195.5"/>
<polygon fill="#666666" stroke="#666666" points="637.74,-195.5 637.74,-195.5 703.49,-195.5 703.49,-195.5 637.74,-195.5"/>
<polygon fill="#666666" stroke="#666666" points="615.49,-179.75 615.49,-179.75 637.74,-179.75 637.74,-179.75 615.49,-179.75"/>
<polygon fill="#666666" stroke="#666666" points="637.74,-179.75 637.74,-179.75 703.49,-179.75 703.49,-179.75 637.74,-179.75"/>
<polygon fill="#666666" stroke="#666666" points="615.49,-164 615.49,-164 637.74,-164 637.74,-164 615.49,-164"/>
<polygon fill="#666666" stroke="#666666" points="637.74,-164 637.74,-164 703.49,-164 703.49,-164 637.74,-164"/>
<polygon fill="#666666" stroke="#666666" points="615.49,-149 615.49,-149 637.74,-149 637.74,-149 615.49,-149"/>
<polygon fill="#666666" stroke="#666666" points="637.74,-149 637.74,-149 703.49,-149 703.49,-149 637.74,-149"/>
<polygon fill="#666666" stroke="#666666" points="615.49,-134 615.49,-134 637.74,-134 637.74,-134 615.49,-134"/>
<polygon fill="#666666" stroke="#666666" points="637.74,-134 637.74,-134 703.49,-134 703.49,-134 637.74,-134"/>
<path fill="none" stroke="#666666" stroke-width="2" d="M628.49,-117.25C628.49,-117.25 690.49,-117.25 690.49,-117.25 696.49,-117.25 702.49,-123.25 702.49,-129.25 702.49,-129.25 702.49,-217.5 702.49,-217.5 702.49,-223.5 696.49,-229.5 690.49,-229.5 690.49,-229.5 628.49,-229.5 628.49,-229.5 622.49,-229.5 616.49,-223.5 616.49,-217.5 616.49,-217.5 616.49,-129.25 616.49,-129.25 616.49,-123.25 622.49,-117.25 628.49,-117.25"/>
</g>
<!-- vehje_ir&#45;&gt;vehje_signature -->
<g id="edge10" class="edge">
<title>vehje_ir&#45;&gt;vehje_signature</title>
<path fill="none" stroke="#bbbbbb" stroke-width="0.8" d="M659.49,-36C659.49,-53.98 659.49,-83.42 659.49,-110.36"/>
<polygon fill="#bbbbbb" stroke="#bbbbbb" stroke-width="0.8" points="657.74,-110.21 659.49,-115.21 661.24,-110.21 657.74,-110.21"/>
</g>
<!-- vehje_resolve&#45;&gt;vehje_typecheck -->
<g id="edge11" class="edge">
<title>vehje_resolve&#45;&gt;vehje_typecheck</title>
<path fill="none" stroke="#bbbbbb" stroke-width="0.8" d="M335.35,-223.64C313.23,-256.52 284.58,-299.11 264.19,-329.42"/>
<polygon fill="#bbbbbb" stroke="#bbbbbb" stroke-width="0.8" points="262.75,-328.43 261.41,-333.55 265.65,-330.38 262.75,-328.43"/>
</g>
<!-- vehje_runtime_driver -->
<g id="node7" class="node">
<title>vehje_runtime_driver</title>
<path fill="#f0f0f0" stroke="none" d="M867.36,-335.38C867.36,-335.38 1105.61,-335.38 1105.61,-335.38 1111.61,-335.38 1117.61,-341.38 1117.61,-347.38 1117.61,-347.38 1117.61,-389.88 1117.61,-389.88 1117.61,-395.88 1111.61,-401.88 1105.61,-401.88 1105.61,-401.88 867.36,-401.88 867.36,-401.88 861.36,-401.88 855.36,-395.88 855.36,-389.88 855.36,-389.88 855.36,-347.38 855.36,-347.38 855.36,-341.38 861.36,-335.38 867.36,-335.38"/>
<polygon fill="#666666" stroke="none" points="856.36,-383.62 856.36,-400.88 1116.61,-400.88 1116.61,-383.62 856.36,-383.62"/>
<text xml:space="preserve" text-anchor="start" x="947.49" y="-389.38" font-family="Helvetica,sans-Serif" font-weight="bold" font-size="10.00" fill="white"> &#160;runtime&#45;driver &#160;</text>
<text xml:space="preserve" text-anchor="start" x="859.36" y="-374.25" font-family="Helvetica,sans-Serif" font-size="6.00" fill="#78909c">enum</text>
<text xml:space="preserve" text-anchor="start" x="879.61" y="-374.98" font-family="Helvetica,sans-Serif" font-weight="bold" font-size="7.00" fill="#546e7a">▲ DriverError</text>
<text xml:space="preserve" text-anchor="start" x="859.36" y="-358.5" font-family="Helvetica,sans-Serif" font-size="6.00" fill="#78909c">fn</text>
<text xml:space="preserve" text-anchor="start" x="879.61" y="-359.02" font-family="Helvetica,sans-Serif" font-weight="bold" font-size="7.00" fill="#546e7a">ƒ dispatch</text>
<text xml:space="preserve" text-anchor="start" x="914.86" y="-359.02" font-family="Helvetica,sans-Serif" font-size="8.00">(_residual: &amp;Residual&lt;&#39;_&gt;) → Outcome&lt;(), DriverError&gt;</text>
<text xml:space="preserve" text-anchor="start" x="859.36" y="-342.38" font-family="Helvetica,sans-Serif" font-size="6.00" fill="#78909c">struct</text>
<text xml:space="preserve" text-anchor="start" x="879.61" y="-343.48" font-family="Helvetica,sans-Serif" font-weight="bold" font-size="7.00" fill="#546e7a">■ Reader&lt;&#39;a&gt;</text>
<polygon fill="#666666" stroke="#666666" points="854.36,-383.62 854.36,-383.62 1118.61,-383.62 1118.61,-383.62 854.36,-383.62"/>
<polygon fill="#666666" stroke="#666666" points="854.36,-368.62 854.36,-368.62 876.61,-368.62 876.61,-368.62 854.36,-368.62"/>
<polygon fill="#666666" stroke="#666666" points="876.61,-368.62 876.61,-368.62 1118.61,-368.62 1118.61,-368.62 876.61,-368.62"/>
<polygon fill="#666666" stroke="#666666" points="854.36,-352.12 854.36,-352.12 876.61,-352.12 876.61,-352.12 854.36,-352.12"/>
<polygon fill="#666666" stroke="#666666" points="876.61,-352.12 876.61,-352.12 1118.61,-352.12 1118.61,-352.12 876.61,-352.12"/>
<path fill="none" stroke="#666666" stroke-width="2" d="M867.36,-335.38C867.36,-335.38 1105.61,-335.38 1105.61,-335.38 1111.61,-335.38 1117.61,-341.38 1117.61,-347.38 1117.61,-347.38 1117.61,-389.88 1117.61,-389.88 1117.61,-395.88 1111.61,-401.88 1105.61,-401.88 1105.61,-401.88 867.36,-401.88 867.36,-401.88 861.36,-401.88 855.36,-395.88 855.36,-389.88 855.36,-389.88 855.36,-347.38 855.36,-347.38 855.36,-341.38 861.36,-335.38 867.36,-335.38"/>
</g>
<!-- vehje_runtime_abi&#45;&gt;vehje_runtime_driver -->
<g id="edge6" class="edge">
<title>vehje_runtime_abi&#45;&gt;vehje_runtime_driver</title>
<path fill="none" stroke="#bbbbbb" stroke-width="0.8" d="M974.62,-191.19C976.66,-221.56 981.02,-286.31 983.85,-328.36"/>
<polygon fill="#bbbbbb" stroke="#bbbbbb" stroke-width="0.8" points="982.09,-328.31 984.17,-333.18 985.58,-328.08 982.09,-328.31"/>
</g>
<!-- vehje_runtime_gen -->
<g id="node8" class="node">
<title>vehje_runtime_gen</title>
<path fill="#f0f0f0" stroke="none" d="M480.86,-311.75C480.86,-311.75 812.11,-311.75 812.11,-311.75 818.11,-311.75 824.11,-317.75 824.11,-323.75 824.11,-323.75 824.11,-413.5 824.11,-413.5 824.11,-419.5 818.11,-425.5 812.11,-425.5 812.11,-425.5 480.86,-425.5 480.86,-425.5 474.86,-425.5 468.86,-419.5 468.86,-413.5 468.86,-413.5 468.86,-323.75 468.86,-323.75 468.86,-317.75 474.86,-311.75 480.86,-311.75"/>
<polygon fill="#666666" stroke="none" points="469.86,-407.25 469.86,-424.5 823.11,-424.5 823.11,-407.25 469.86,-407.25"/>
<text xml:space="preserve" text-anchor="start" x="612.36" y="-413" font-family="Helvetica,sans-Serif" font-weight="bold" font-size="10.00" fill="white"> &#160;runtime&#45;gen &#160;</text>
<text xml:space="preserve" text-anchor="start" x="472.86" y="-397.88" font-family="Helvetica,sans-Serif" font-size="6.00" fill="#78909c">enum</text>
<text xml:space="preserve" text-anchor="start" x="493.11" y="-398.6" font-family="Helvetica,sans-Serif" font-weight="bold" font-size="7.00" fill="#546e7a">▲ SliceKind</text>
<text xml:space="preserve" text-anchor="start" x="472.86" y="-382.5" font-family="Helvetica,sans-Serif" font-size="6.00" fill="#78909c">struct</text>
<text xml:space="preserve" text-anchor="start" x="493.11" y="-383.6" font-family="Helvetica,sans-Serif" font-weight="bold" font-size="7.00" fill="#546e7a">■ Slice&lt;&#39;a&gt;</text>
<text xml:space="preserve" text-anchor="start" x="472.86" y="-366.75" font-family="Helvetica,sans-Serif" font-size="6.00" fill="#78909c">struct</text>
<text xml:space="preserve" text-anchor="start" x="493.11" y="-367.85" font-family="Helvetica,sans-Serif" font-weight="bold" font-size="7.00" fill="#546e7a">■ Package&lt;&#39;a&gt;</text>
<text xml:space="preserve" text-anchor="start" x="472.86" y="-351" font-family="Helvetica,sans-Serif" font-size="6.00" fill="#78909c">struct</text>
<text xml:space="preserve" text-anchor="start" x="493.11" y="-352.1" font-family="Helvetica,sans-Serif" font-weight="bold" font-size="7.00" fill="#546e7a">■ Manifest</text>
<text xml:space="preserve" text-anchor="start" x="472.86" y="-335.25" font-family="Helvetica,sans-Serif" font-size="6.00" fill="#78909c">struct</text>
<text xml:space="preserve" text-anchor="start" x="493.11" y="-336.35" font-family="Helvetica,sans-Serif" font-weight="bold" font-size="7.00" fill="#546e7a">■ DifferentialCheck</text>
<text xml:space="preserve" text-anchor="start" x="472.86" y="-319.12" font-family="Helvetica,sans-Serif" font-size="6.00" fill="#78909c">fn</text>
<text xml:space="preserve" text-anchor="start" x="493.11" y="-319.65" font-family="Helvetica,sans-Serif" font-weight="bold" font-size="7.00" fill="#546e7a">ƒ generate&lt;&#39;a&gt;</text>
<text xml:space="preserve" text-anchor="start" x="541.11" y="-319.65" font-family="Helvetica,sans-Serif" font-size="8.00">(_signature: &amp;Signature&lt;&#39;a&gt;, slices: &amp;&#39;a [Slice&lt;&#39;a&gt;]) → (Package&lt;&#39;a&gt;, Manifest)</text>
<polygon fill="#666666" stroke="#666666" points="467.86,-407.25 467.86,-407.25 825.11,-407.25 825.11,-407.25 467.86,-407.25"/>
<polygon fill="#666666" stroke="#666666" points="467.86,-392.25 467.86,-392.25 490.11,-392.25 490.11,-392.25 467.86,-392.25"/>
<polygon fill="#666666" stroke="#666666" points="490.11,-392.25 490.11,-392.25 825.11,-392.25 825.11,-392.25 490.11,-392.25"/>
<polygon fill="#666666" stroke="#666666" points="467.86,-376.5 467.86,-376.5 490.11,-376.5 490.11,-376.5 467.86,-376.5"/>
<polygon fill="#666666" stroke="#666666" points="490.11,-376.5 490.11,-376.5 825.11,-376.5 825.11,-376.5 490.11,-376.5"/>
<polygon fill="#666666" stroke="#666666" points="467.86,-360.75 467.86,-360.75 490.11,-360.75 490.11,-360.75 467.86,-360.75"/>
<polygon fill="#666666" stroke="#666666" points="490.11,-360.75 490.11,-360.75 825.11,-360.75 825.11,-360.75 490.11,-360.75"/>
<polygon fill="#666666" stroke="#666666" points="467.86,-345 467.86,-345 490.11,-345 490.11,-345 467.86,-345"/>
<polygon fill="#666666" stroke="#666666" points="490.11,-345 490.11,-345 825.11,-345 825.11,-345 490.11,-345"/>
<polygon fill="#666666" stroke="#666666" points="467.86,-329.25 467.86,-329.25 490.11,-329.25 490.11,-329.25 467.86,-329.25"/>
<polygon fill="#666666" stroke="#666666" points="490.11,-329.25 490.11,-329.25 825.11,-329.25 825.11,-329.25 490.11,-329.25"/>
<path fill="none" stroke="#666666" stroke-width="2" d="M480.86,-311.75C480.86,-311.75 812.11,-311.75 812.11,-311.75 818.11,-311.75 824.11,-317.75 824.11,-323.75 824.11,-323.75 824.11,-413.5 824.11,-413.5 824.11,-419.5 818.11,-425.5 812.11,-425.5 812.11,-425.5 480.86,-425.5 480.86,-425.5 474.86,-425.5 468.86,-419.5 468.86,-413.5 468.86,-413.5 468.86,-323.75 468.86,-323.75 468.86,-317.75 474.86,-311.75 480.86,-311.75"/>
</g>
<!-- vehje_schedule&#45;&gt;vehje_runtime_driver -->
<g id="edge7" class="edge">
<title>vehje_schedule&#45;&gt;vehje_runtime_driver</title>
<path fill="none" stroke="#bbbbbb" stroke-width="0.8" d="M858.61,-207.16C885.71,-241.17 928.04,-294.28 956.49,-329.98"/>
<polygon fill="#bbbbbb" stroke="#bbbbbb" stroke-width="0.8" points="955,-330.92 959.48,-333.74 957.73,-328.73 955,-330.92"/>
</g>
<!-- vehje_signature&#45;&gt;vehje_runtime_gen -->
<g id="edge8" class="edge">
<title>vehje_signature&#45;&gt;vehje_runtime_gen</title>
<path fill="none" stroke="#bbbbbb" stroke-width="0.8" d="M655.73,-230.27C654.16,-253.6 652.33,-280.8 650.71,-304.82"/>
<polygon fill="#bbbbbb" stroke="#bbbbbb" stroke-width="0.8" points="648.98,-304.54 650.39,-309.64 652.47,-304.77 648.98,-304.54"/>
</g>
<!-- vehje_signature&#45;&gt;vehje_typecheck -->
<g id="edge12" class="edge">
<title>vehje_signature&#45;&gt;vehje_typecheck</title>
<path fill="none" stroke="#bbbbbb" stroke-width="0.8" d="M615.63,-227.69C611.1,-231.73 606.37,-235.49 601.49,-238.75 560.48,-266.16 446.21,-304.77 356.72,-332.58"/>
<polygon fill="#bbbbbb" stroke="#bbbbbb" stroke-width="0.8" points="356.27,-330.88 352.02,-334.03 357.31,-334.22 356.27,-330.88"/>
</g>
<!-- vehje_typecheck&#45;&gt;vehje_codegen -->
<g id="edge1" class="edge">
<title>vehje_typecheck&#45;&gt;vehje_codegen</title>
<path fill="none" stroke="#bbbbbb" stroke-width="0.8" d="M238.49,-402.73C238.49,-428.02 238.49,-463.37 238.49,-492.59"/>
<polygon fill="#bbbbbb" stroke="#bbbbbb" stroke-width="0.8" points="236.74,-492.51 238.49,-497.51 240.24,-492.51 236.74,-492.51"/>
</g>
</g>
</svg>
